<?xml version="1.0" standalone="no"?>
<!DOCTYPE svg PUBLIC "-//W3C//DTD SVG 1.1//EN" "http://www.w3.org/Graphics/SVG/1.1/DTD/svg11.dtd" >
<svg xmlns="http://www.w3.org/2000/svg">
<metadata>Generated by IcoMoon</metadata>
<defs>
<font id="icomoon" horiz-adv-x="1024">
<font-face units-per-em="1024" ascent="960" descent="-64" />
<missing-glyph horiz-adv-x="1024" />
<glyph unicode="&#x20;" horiz-adv-x="512" d="" />
<glyph unicode="&#xe900;" glyph-name="text-back-man" horiz-adv-x="987" d="M697.417 379.122c-151.484 0-274.286 122.802-274.286 274.286s122.802 274.286 274.286 274.286c151.484 0 274.286-122.802 274.286-274.286s-122.802-274.286-274.286-274.286zM766.775 594.872c-27.381-11.905-50.595-21.548-69.643-28.929v93.214h125.714v-9.286h26.786v162.857h-179.643v-237.143c0-9.524-3.452-17.619-10.357-24.286l20.357-26.786c6.667 4.762 13.333 8.929 20 12.5 23.095 11.191 45.952 21.071 68.571 29.643-0.952 9.048-1.548 18.452-1.786 28.214zM683.917 512.729c-34.286 0.952-58.809 12.976-73.571 36.071v152.5h-70v-26.429h42.5v-120.357c-9.524-8.81-24.762-23.333-45.714-43.571l14.643-29.643c18.81 22.857 33.095 38.809 42.857 47.857 16.667-27.143 45-41.071 85-41.786 66.191-1.429 133.928-1.905 203.214-1.429 4.048 10.952 7.381 20.357 10 28.214-71.667-1.905-141.309-2.381-208.929-1.429zM863.917 651.658c-25-13.571-49.405-26.071-73.214-37.5-16.429 10-34.286 20.833-53.571 32.5l-14.643-19.643c53.334-33.81 99.524-64.881 138.571-93.214l17.857 25c-17.143 11.191-38.571 24.762-64.286 40.714 21.905 9.048 44.405 18.214 67.5 27.5l-18.214 24.643zM822.846 788.444v-40.714h-125.714v40.714h125.714zM822.846 683.444h-125.714v40.714h125.714v-40.714zM581.775 821.301l-22.857-15.357c12.381-16.429 28.214-39.762 47.5-70l25.357 17.857c-21.191 30.238-37.857 52.738-50 67.5zM548.514 342.477h-366.593c-11.893 0-21.507-9.656-21.507-21.54-0.011-5.71 2.25-11.191 6.285-15.232s9.512-6.311 15.222-6.308h366.593c5.711-0.003 11.189 2.266 15.225 6.306s6.3 9.52 6.291 15.231c0 11.887-9.615 21.543-21.516 21.543v0zM674.431 55.712l-62.866 56.308c19.73 13.892 32.621 36.834 32.621 62.788 0 42.391-34.385 76.754-76.8 76.754s-76.8-34.364-76.8-76.754c0-25.905 12.842-48.81 32.509-62.71l-62.65-56.387h0.883c-15.147 0-27.427-12.273-27.427-27.413v-73.1c0-15.139 12.28-27.413 27.427-27.413h212.116c15.148 0 27.429 12.273 27.429 27.413v73.1c-0.001 15.141-12.282 27.413-27.43 27.413h0.988zM607.614 174.808c0-22.206-18.011-40.205-40.228-40.205s-40.229 17.999-40.229 40.205c-0.001 22.204 18.012 40.204 40.229 40.204s40.228-18 40.228-40.204zM558.1 98.613c3.045-0.366 6.142-0.56 9.286-0.56 3.084 0 6.123 0.187 9.112 0.54l53.78-42.882h-125.738l53.561 42.902zM664.3-35.663h-193.829v54.825h193.829v-54.825zM729.596 382.143v-97.348h-43.015v98.144c8.741-0.853 17.601-1.289 26.562-1.289 5.524 0 11.010 0.166 16.453 0.493zM506.398 463.913h-324.903c-5.711-0.002-11.188 2.304-15.222 6.407s-6.296 9.669-6.285 15.467c0 12.067 9.615 21.869 21.507 21.869h289.811c10.233-15.773 22.002-30.428 35.092-43.743zM441.671 752.995c-5.214-15.072-9.187-30.738-11.796-46.87h-157.355c-7.118-0.013-12.882-5.875-12.884-13.103v0-4.434c0-7.228 5.765-13.091 12.884-13.103h154.101c-0.253-4.907-0.382-9.847-0.382-14.818 0-10.84 0.61-21.535 1.797-32.052h-155.516c-32.513 0-58.963 26.905-58.963 59.973v4.434c0 33.071 26.45 59.973 58.963 59.973h169.151zM43.012 17.145c0-32.405 23.359-58.72 52.051-58.72h255.493v-43.758h-255.493c-52.383 0-95.063 45.939-95.063 102.478v590.811c0 56.497 42.68 102.439 95.063 102.439h67.42c11.863 0 21.507-9.781 21.507-21.878 0-12.067-9.644-21.878-21.507-21.878h-67.42c-28.692 0-52.051-26.318-52.051-58.684v-590.811zM166.272 122.617c-4.035 4.104-6.296 9.669-6.284 15.468 0 12.067 9.615 21.872 21.507 21.872h169.060v-43.746h-169.060c-5.711-0.002-11.188 2.303-15.223 6.406z" />
<glyph unicode="&#xe901;" glyph-name="text-back-check" horiz-adv-x="987" d="M572.895 342.477h-366.593c-11.893 0-21.507-9.656-21.507-21.54-0.011-5.71 2.25-11.191 6.285-15.232s9.512-6.311 15.222-6.308h366.593c5.711-0.003 11.189 2.266 15.225 6.306s6.3 9.52 6.291 15.231c0 11.887-9.615 21.543-21.516 21.543v0zM600.573-44.068c73.416 0 132.93 59.693 132.93 133.328 0 73.632-59.515 133.328-132.93 133.328s-132.93-59.696-132.93-133.328c0-73.635 59.515-133.328 132.93-133.328zM600.573 0.37c-48.945 0-88.622 39.799-88.622 88.889s39.677 88.883 88.622 88.883c48.942 0 88.619-39.793 88.619-88.883s-39.677-88.886-88.619-88.886v-0.003zM667.543-9.404l50.304-50.39c4.152-4.163 9.791-6.502 15.671-6.498s11.516 2.35 15.662 6.519c8.648 8.694 8.639 22.745-0.021 31.427l-50.307 50.39c-4.152 4.163-9.791 6.502-15.671 6.498s-11.516-2.35-15.662-6.519c-8.648-8.695-8.637-22.745 0.024-31.427v0zM754.403 393.178v-98.97h-43.015v95.892c0.584-0.004 1.169-0.005 1.755-0.005 14.024 0 27.802 1.052 41.26 3.083zM519.015 470.611h-312.712c-5.711-0.002-11.188 2.269-15.222 6.31s-6.296 9.522-6.285 15.233c0 11.884 9.615 21.537 21.507 21.537h277.62c10.233-15.534 22.002-29.966 35.092-43.080zM454.288 755.309h-156.96c-32.513 0-58.963-26.494-58.963-59.064v-4.367c0-32.567 26.45-59.064 58.963-59.064h143.326c-1.187 10.358-1.797 20.891-1.797 31.566 0 4.895 0.128 9.761 0.382 14.593h-141.911c-7.119 0.011-12.884 5.786-12.884 12.904v4.367c0.002 7.118 5.766 12.891 12.884 12.904h145.165c2.608 15.888 6.582 31.315 11.796 46.159zM67.819 30.617v581.853c0 31.875 23.359 57.794 52.051 57.794h67.42c11.863 0 21.507 9.662 21.507 21.546 0 11.914-9.644 21.546-21.507 21.546h-67.42c-52.383 0-95.063-45.246-95.063-100.886v-581.853c0-55.682 42.68-100.925 95.063-100.925h255.493v43.095h-255.493c-28.692 0-52.051 25.916-52.051 57.83zM700.952 386.439c-151.484 0-274.286 122.802-274.286 274.286s122.802 274.286 274.286 274.286c151.484 0 274.286-122.802 274.286-274.286s-122.802-274.286-274.286-274.286zM770.31 602.189c-27.381-11.905-50.595-21.548-69.643-28.929v93.214h125.714v-9.286h26.786v162.857h-179.643v-237.143c0-9.524-3.452-17.619-10.357-24.286l20.357-26.786c6.667 4.762 13.333 8.929 20 12.5 23.095 11.191 45.952 21.071 68.571 29.643-0.952 9.048-1.548 18.452-1.786 28.214zM687.452 520.046c-34.286 0.952-58.809 12.976-73.571 36.071v152.5h-70v-26.429h42.5v-120.357c-9.524-8.81-24.762-23.333-45.714-43.571l14.643-29.643c18.81 22.857 33.095 38.809 42.857 47.857 16.667-27.143 45-41.071 85-41.786 66.191-1.429 133.928-1.905 203.214-1.429 4.048 10.952 7.381 20.357 10 28.214-71.667-1.905-141.309-2.381-208.929-1.429zM867.452 658.975c-25-13.571-49.405-26.071-73.214-37.5-16.429 10-34.286 20.833-53.571 32.5l-14.643-19.643c53.334-33.81 99.524-64.881 138.571-93.214l17.857 25c-17.143 11.191-38.571 24.762-64.286 40.714 21.905 9.048 44.405 18.214 67.5 27.5l-18.214 24.643zM826.381 795.761v-40.714h-125.714v40.714h125.714zM826.381 690.761h-125.714v40.714h125.714v-40.714zM585.31 828.618l-22.857-15.357c12.381-16.429 28.214-39.762 47.5-70l25.357 17.857c-21.191 30.238-37.857 52.738-50 67.5z" />
<glyph unicode="&#xe902;" glyph-name="text-back-up" horiz-adv-x="951" d="M548.514 342.477h-366.593c-11.893 0-21.507-9.656-21.507-21.54-0.011-5.71 2.25-11.191 6.285-15.232s9.512-6.311 15.222-6.308h366.593c5.711-0.003 11.189 2.266 15.225 6.306s6.3 9.52 6.291 15.231c0 11.887-9.615 21.543-21.516 21.543v0zM43.438 30.617v581.853c0 31.875 23.359 57.794 52.051 57.794h67.42c11.863 0 21.507 9.662 21.507 21.546 0 11.914-9.644 21.546-21.507 21.546h-67.42c-52.383 0-95.063-45.246-95.063-100.886v-581.853c0-55.682 42.68-100.925 95.063-100.925h255.493v43.095h-255.493c-28.692 0-52.051 25.916-52.051 57.83zM160.414 149.724c-0.012-5.711 2.249-11.192 6.284-15.234s9.512-6.312 15.223-6.309h169.060v43.083h-169.060c-11.893 0-21.507-9.656-21.507-21.54v0zM730.022 395.301v-101.092h-43.015v96.082c14.662 0.548 29.029 2.248 43.015 5.010zM482.444 470.611h-300.522c-5.711-0.002-11.188 2.269-15.222 6.31s-6.296 9.522-6.285 15.233c0 11.884 9.615 21.537 21.507 21.537h265.43c10.233-15.534 22.002-29.966 35.092-43.080zM417.717 755.309h-144.77c-32.513 0-58.963-26.494-58.963-59.064v-4.367c0-32.567 26.45-59.064 58.963-59.064h131.135c-1.187 10.358-1.797 20.891-1.797 31.566 0 4.895 0.128 9.761 0.382 14.593h-129.72c-7.119 0.011-12.884 5.786-12.884 12.904v4.367c0.002 7.118 5.766 12.891 12.884 12.904h132.974c2.608 15.888 6.582 31.315 11.796 46.159zM591.078 228.012c0 3.566-4.090 3.566 0 0-8.17 7.131-16.349 10.702-20.429 10.702-8.165 0-16.34-3.57-16.34-7.136 0 0-4.085 0-4.085-3.566l-122.548-107.049c-8.17-7.141-8.17-17.842 0-28.544 8.17-7.141 24.51-7.141 32.68 0l85.784 82.066v-196.252c0-10.706 8.165-17.842 20.42-17.842s20.425 7.136 20.425 17.842v196.252l89.869-78.501c8.165-7.141 24.51-7.141 32.68 0 8.165 7.136 8.165 17.838 0 28.544l-118.454 103.484zM676.571 390.096c-151.484 0-274.286 122.802-274.286 274.286s122.802 274.286 274.286 274.286c151.484 0 274.286-122.802 274.286-274.286s-122.802-274.286-274.286-274.286zM745.929 605.846c-27.381-11.905-50.595-21.548-69.643-28.929v93.214h125.714v-9.286h26.786v162.857h-179.643v-237.143c0-9.524-3.452-17.619-10.357-24.286l20.357-26.786c6.667 4.762 13.333 8.929 20 12.5 23.095 11.191 45.952 21.071 68.571 29.643-0.952 9.048-1.548 18.452-1.786 28.214zM663.071 523.703c-34.286 0.952-58.809 12.976-73.571 36.071v152.5h-70v-26.429h42.5v-120.357c-9.524-8.81-24.762-23.333-45.714-43.571l14.643-29.643c18.81 22.857 33.095 38.809 42.857 47.857 16.667-27.143 45-41.071 85-41.786 66.191-1.429 133.928-1.905 203.214-1.429 4.048 10.952 7.381 20.357 10 28.214-71.667-1.905-141.309-2.381-208.929-1.429zM843.071 662.631c-25-13.571-49.405-26.071-73.214-37.5-16.429 10-34.286 20.833-53.571 32.5l-14.643-19.643c53.334-33.81 99.524-64.881 138.571-93.214l17.857 25c-17.143 11.191-38.571 24.762-64.286 40.714 21.905 9.048 44.405 18.214 67.5 27.5l-18.214 24.643zM802 799.417v-40.714h-125.714v40.714h125.714zM802 694.417h-125.714v40.714h125.714v-40.714zM560.929 832.274l-22.857-15.357c12.381-16.429 28.214-39.762 47.5-70l25.357 17.857c-21.191 30.238-37.857 52.738-50 67.5z" />
<glyph unicode="&#xe903;" glyph-name="text-man" horiz-adv-x="935" d="M682.597 435.479h-446.287c-14.478 0-26.183-11.755-26.183-26.223-0.013-6.952 2.74-13.624 7.652-18.543s11.579-7.683 18.531-7.68h446.287c6.953-0.004 13.621 2.758 18.535 7.677s7.669 11.59 7.659 18.542c0 14.471-11.705 26.226-26.194 26.226v0zM835.887 86.373l-76.533 68.549c24.019 16.912 39.713 44.841 39.713 76.438 0 51.606-41.859 93.44-93.495 93.44s-93.496-41.834-93.496-93.44c0-31.537 15.634-59.421 39.576-76.342l-76.27-68.645h1.075c-18.44 0-33.389-14.941-33.389-33.373v-88.991c0-18.43 14.949-33.372 33.389-33.372h258.228c18.441 0 33.392 14.941 33.392 33.372v88.991c-0.001 18.432-14.951 33.373-33.392 33.373h1.202zM754.544 231.361c0-27.033-21.927-48.945-48.973-48.945-27.048 0-48.975 21.912-48.975 48.945-0.001 27.031 21.927 48.944 48.975 48.944s48.973-21.913 48.973-48.944zM694.267 138.602c3.707-0.446 7.477-0.681 11.304-0.681 3.754 0 7.454 0.228 11.092 0.658l65.472-52.205h-153.073l65.204 52.228zM823.553-24.865h-235.965v66.743h235.965v-66.743zM705.718 834.525h81.98c35.020 0 63.5-31.553 63.5-70.358v-387.449h52.366v387.449c-0.079 67.74-52.041 122.818-115.862 122.818h-81.98c-6.954 0.002-13.623-2.762-18.537-7.683s-7.669-11.593-7.657-18.547c0-14.467 11.708-26.23 26.19-26.23v0zM682.597 643.913h-446.287c-14.478 0-26.183-11.752-26.183-26.219-0.013-6.952 2.739-13.624 7.651-18.544s11.579-7.684 18.532-7.682h446.287c6.954-0.004 13.623 2.759 18.538 7.679s7.669 11.593 7.656 18.547c0 14.467-11.705 26.219-26.194 26.219zM67.722 55.824v708.343c0 38.805 28.436 70.358 63.366 70.358h82.077c14.442 0 26.183 11.762 26.183 26.23 0 14.504-11.741 26.23-26.183 26.23h-82.077c-63.771 0-115.728-55.082-115.728-122.818v-708.343c0-67.787 51.958-122.865 115.728-122.865h311.035v52.463h-311.035c-34.93 0-63.366 31.549-63.366 70.401zM210.128 200.823c-0.014-6.953 2.738-13.625 7.65-18.545s11.58-7.684 18.533-7.681h205.812v52.449h-205.812c-14.478 0-26.183-11.755-26.183-26.223v0zM347.124 788.934h224.678c39.578 0 71.777 32.257 71.777 71.904v5.316c0 39.65-32.2 71.904-71.777 71.904h-224.678c-39.581 0-71.781-32.254-71.781-71.904v-5.316c0-39.646 32.2-71.904 71.781-71.904zM331.439 866.154c0.002 8.666 7.019 15.694 15.684 15.71h224.678c8.664-0.018 15.677-7.046 15.677-15.71v-5.316c0-8.664-7.014-15.692-15.677-15.71h-224.678c-8.666 0.014-15.684 7.043-15.684 15.71v5.316z" />
<glyph unicode="&#xe904;" glyph-name="text-end" horiz-adv-x="890" d="M693.267-40.811c73.766 0 133.565 59.799 133.565 133.565s-59.799 133.565-133.565 133.565c-73.766 0-133.565-59.799-133.565-133.565s59.799-133.565 133.565-133.565zM693.267-85.333c-98.355 0-178.087 79.732-178.087 178.087s79.732 178.087 178.087 178.087c98.355 0 178.087-79.732 178.087-178.087s-79.732-178.087-178.087-178.087zM619.964 107.387c-8.693 8.693-22.788 8.693-31.482 0s-8.693-22.788 0-31.482l56.754-56.754c8.693-8.693 22.788-8.693 31.482 0l102.384 102.384c8.693 8.693 8.693 22.788 0 31.482s-22.788 8.693-31.482 0l-86.643-86.643-41.013 41.013zM667.757 435.479h-446.287c-14.478 0-26.183-11.755-26.183-26.223-0.013-6.952 2.74-13.624 7.652-18.543s11.579-7.683 18.531-7.68h446.287c6.953-0.004 13.621 2.758 18.535 7.677s7.669 11.59 7.659 18.542c0 14.471-11.705 26.226-26.194 26.226v0zM690.877 834.525h81.98c35.020 0 63.5-31.553 63.5-70.358v-387.449h52.366v387.449c-0.079 67.74-52.041 122.818-115.862 122.818h-81.98c-6.954 0.002-13.623-2.762-18.537-7.683s-7.669-11.593-7.657-18.547c0-14.467 11.708-26.23 26.19-26.23v0zM667.757 643.913h-446.287c-14.478 0-26.183-11.752-26.183-26.219-0.013-6.952 2.739-13.624 7.651-18.544s11.579-7.684 18.532-7.682h446.287c6.954-0.004 13.623 2.759 18.538 7.679s7.669 11.593 7.656 18.547c0 14.467-11.705 26.219-26.194 26.219zM52.881 55.824v708.343c0 38.805 28.436 70.358 63.366 70.358h82.077c14.442 0 26.183 11.762 26.183 26.23 0 14.504-11.741 26.23-26.183 26.23h-82.077c-63.771 0-115.728-55.082-115.728-122.818v-708.343c0-67.787 51.958-122.865 115.728-122.865h311.035v52.463h-311.035c-34.93 0-63.366 31.549-63.366 70.401zM195.287 200.823c-0.014-6.953 2.738-13.625 7.65-18.545s11.58-7.684 18.533-7.681h205.812v52.449h-205.812c-14.478 0-26.183-11.755-26.183-26.223v0zM332.283 788.934h224.678c39.578 0 71.777 32.257 71.777 71.904v5.316c0 39.65-32.2 71.904-71.777 71.904h-224.678c-39.581 0-71.781-32.254-71.781-71.904v-5.316c0-39.646 32.2-71.904 71.781-71.904zM316.599 866.154c0.002 8.666 7.019 15.694 15.684 15.71h224.678c8.664-0.018 15.677-7.046 15.677-15.71v-5.316c0-8.664-7.014-15.692-15.677-15.71h-224.678c-8.666 0.014-15.684 7.043-15.684 15.71v5.316z" />
<glyph unicode="&#xe905;" glyph-name="text-check" horiz-adv-x="935" d="M697.438 435.479h-446.287c-14.478 0-26.183-11.755-26.183-26.223-0.013-6.952 2.74-13.624 7.652-18.543s11.579-7.683 18.531-7.68h446.287c6.953-0.004 13.621 2.758 18.535 7.677s7.669 11.59 7.659 18.542c0 14.471-11.705 26.226-26.194 26.226v0zM731.133-35.098c89.376 0 161.828 72.669 161.828 162.312 0 89.639-72.453 162.312-161.828 162.312s-161.828-72.673-161.828-162.312c0-89.643 72.453-162.312 161.828-162.312zM731.133 19.001c-59.585 0-107.888 48.451-107.888 108.213s48.303 108.206 107.888 108.206c59.581 0 107.884-48.444 107.884-108.206s-48.303-108.209-107.884-108.209v-0.004zM812.661 7.102l61.239-61.344c5.054-5.069 11.919-7.915 19.077-7.91s14.019 2.86 19.067 7.936c10.528 10.584 10.517 27.689-0.025 38.26l-61.243 61.344c-5.054 5.069-11.919 7.915-19.077 7.91s-14.019-2.86-19.067-7.936c-10.527-10.585-10.515-27.69 0.029-38.26v0zM720.558 834.525h81.98c35.020 0 63.5-31.553 63.5-70.358v-387.449h52.366v387.449c-0.079 67.74-52.041 122.818-115.862 122.818h-81.98c-6.954 0.002-13.623-2.762-18.537-7.683s-7.669-11.593-7.657-18.547c0-14.467 11.708-26.23 26.19-26.23v0zM697.438 643.913h-446.287c-14.478 0-26.183-11.752-26.183-26.219-0.013-6.952 2.739-13.624 7.651-18.544s11.579-7.684 18.532-7.682h446.287c6.954-0.004 13.623 2.759 18.538 7.679s7.669 11.593 7.656 18.547c0 14.467-11.705 26.219-26.194 26.219zM82.562 55.824v708.343c0 38.805 28.436 70.358 63.366 70.358h82.077c14.442 0 26.183 11.762 26.183 26.23 0 14.504-11.741 26.23-26.183 26.23h-82.077c-63.771 0-115.728-55.082-115.728-122.818v-708.343c0-67.787 51.958-122.865 115.728-122.865h311.035v52.463h-311.035c-34.93 0-63.366 31.549-63.366 70.401zM224.968 200.823c-0.014-6.953 2.738-13.625 7.65-18.545s11.58-7.684 18.533-7.681h205.812v52.449h-205.812c-14.478 0-26.183-11.755-26.183-26.223v0zM361.964 788.934h224.678c39.578 0 71.777 32.257 71.777 71.904v5.316c0 39.65-32.2 71.904-71.777 71.904h-224.678c-39.581 0-71.781-32.254-71.781-71.904v-5.316c0-39.646 32.2-71.904 71.781-71.904zM346.28 866.154c0.002 8.666 7.019 15.694 15.684 15.71h224.678c8.664-0.018 15.677-7.046 15.677-15.71v-5.316c0-8.664-7.014-15.692-15.677-15.71h-224.678c-8.666 0.014-15.684 7.043-15.684 15.71v5.316z" />
<glyph unicode="&#xe906;" glyph-name="text-up" horiz-adv-x="890" d="M667.757 435.479h-446.287c-14.478 0-26.183-11.755-26.183-26.223-0.013-6.952 2.74-13.624 7.652-18.543s11.579-7.683 18.531-7.68h446.287c6.953-0.004 13.621 2.758 18.535 7.677s7.669 11.59 7.659 18.542c0 14.471-11.705 26.226-26.194 26.226v0zM690.877 834.525h81.98c35.020 0 63.5-31.553 63.5-70.358v-387.449h52.366v387.449c-0.079 67.74-52.041 122.818-115.862 122.818h-81.98c-6.954 0.002-13.623-2.762-18.537-7.683s-7.669-11.593-7.657-18.547c0-14.467 11.708-26.23 26.19-26.23v0zM667.757 643.913h-446.287c-14.478 0-26.183-11.752-26.183-26.219-0.013-6.952 2.739-13.624 7.651-18.544s11.579-7.684 18.532-7.682h446.287c6.954-0.004 13.623 2.759 18.538 7.679s7.669 11.593 7.656 18.547c0 14.467-11.705 26.219-26.194 26.219zM52.881 55.824v708.343c0 38.805 28.436 70.358 63.366 70.358h82.077c14.442 0 26.183 11.762 26.183 26.23 0 14.504-11.741 26.23-26.183 26.23h-82.077c-63.771 0-115.728-55.082-115.728-122.818v-708.343c0-67.787 51.958-122.865 115.728-122.865h311.035v52.463h-311.035c-34.93 0-63.366 31.549-63.366 70.401zM195.287 200.823c-0.014-6.953 2.738-13.625 7.65-18.545s11.58-7.684 18.533-7.681h205.812v52.449h-205.812c-14.478 0-26.183-11.755-26.183-26.223v0zM332.283 788.934h224.678c39.578 0 71.777 32.257 71.777 71.904v5.316c0 39.65-32.2 71.904-71.777 71.904h-224.678c-39.581 0-71.781-32.254-71.781-71.904v-5.316c0-39.646 32.2-71.904 71.781-71.904zM316.599 866.154c0.002 8.666 7.019 15.694 15.684 15.71h224.678c8.664-0.018 15.677-7.046 15.677-15.71v-5.316c0-8.664-7.014-15.692-15.677-15.71h-224.678c-8.666 0.014-15.684 7.043-15.684 15.71v5.316zM719.573 296.131c0 4.341-4.979 4.341 0 0-9.946 8.682-19.903 13.028-24.87 13.028-9.94 0-19.892-4.346-19.892-8.687 0 0-4.973 0-4.973-4.341l-149.189-130.321c-9.946-8.693-9.946-21.721 0-34.749 9.946-8.693 29.838-8.693 39.784 0l104.432 99.907v-238.915c0-13.034 9.94-21.721 24.859-21.721s24.865 8.687 24.865 21.721v238.915l109.405-95.566c9.94-8.693 29.838-8.693 39.784 0 9.94 8.687 9.94 21.716 0 34.749l-144.205 125.98z" />
<glyph unicode="&#xe907;" glyph-name="star" d="M414.55 619.613c-16.69-35.858-50.022-61.251-88.932-67.085l-224.707-34.152 164.667-168.070c27.107-27.539 39.267-66.562 32.945-104.565l-38.182-233.069 195.393 107.544c35.067 19.44 77.411 19.44 112.284 0.107l195.587-107.651-38.239 233.423c-6.029 37.967 5.982 76.76 32.883 104.091l164.786 168.191-225.12 34.216c-38.647 6.1-71.511 31.118-88.361 66.683l-97.582 206.888-97.424-206.55zM552.088 912.572l123.622-262.095c6.561-13.849 19.107-23.348 33.61-25.637l276.365-42.004c36.603-5.608 51.336-52.762 24.747-79.773l-199.936-204.068c-10.59-10.758-15.309-26.209-12.892-41.432l47.193-288.075c6.216-38.227-32.114-67.298-64.804-49.329l-247.244 136.083c-13.007 7.21-28.546 7.21-41.553 0l-247.244-136.083c-32.805-18.083-71.134 11.102-64.804 49.329l47.193 288.075c2.532 15.222-2.302 30.673-12.892 41.432l-199.936 204.068c-26.474 27.011-11.856 74.165 24.747 79.773l276.365 42.004c14.503 2.175 27.165 11.789 33.61 25.637l123.622 262.095c16.46 34.793 63.883 34.793 80.228 0z" />
<glyph unicode="&#xe908;" glyph-name="new" horiz-adv-x="2048" d="M512 938.667h1024c282.77 0 512-229.23 512-512v0c0-282.77-229.23-512-512-512h-1024c-282.77 0-512 229.23-512 512v0 0c0 282.77 229.23 512 512 512v0zM314.5 170.667h69.75v432l288.75-432h74.625v549.75h-69.75v-431.625l-288.75 431.625h-74.625v-549.75zM1133.875 298.917c-10.25-28.5-24.125-49.25-41.625-62.25s-38.625-19.5-63.375-19.5c-33.25 0-61 11.625-83.25 34.875s-34.625 56.75-37.125 100.5h297c0.25 8 0.375 14 0.375 18 0 65.75-16.875 116.75-50.625 153s-77.25 54.375-130.5 54.375c-55 0-99.75-18.5-134.25-55.5s-51.75-89-51.75-156c0-64.75 17.062-115.062 51.187-150.938s80.312-53.812 138.563-53.812c46.25 0 84.25 11.25 114 33.75s50.125 54.125 61.125 94.875l-69.75 8.625zM912.25 408.042c2.25 34.75 13.937 62.5 35.063 83.25s47.187 31.125 78.188 31.125c34.25 0 62.125-13 83.625-39 14-16.75 22.5-41.875 25.5-75.375h-222.375zM1361.875 170.667h70.5l80.625 306.375 15.375-67.875 63.375-238.5h70.125l124.5 398.25h-65.625l-68.25-230.25-22.875-76.875-19.875 76.125-59.625 231h-69.375l-63.375-233.25c-12.75-50.5-19.625-77.875-20.625-82.125l-23.625 85.5-63.375 229.875h-69.75l121.875-398.25z" />
<glyph unicode="&#xe909;" glyph-name="user" horiz-adv-x="874" d="M437.073 326.765c-179.793 0-342.573-139.933-354.283-273.99 13.894-7.087 37.051-14.154 67.937-19.986 67.189-12.687 161.801-18.377 283.569-18.595 122.387-0.22 218.726 5.319 287.147 18.048 31.836 5.923 55.688 13.16 69.919 20.46-11.657 134.079-174.463 274.063-354.29 274.063zM874.146 37.48c0-88.322-220.491-105.797-439.998-105.403-217.557 0.39-434.149 17.865-434.149 105.403 0 175.86 195.684 371.401 437.073 371.401s437.073-195.541 437.073-371.401zM437.073 513.382c95.897 0 173.637 77.74 173.637 173.637s-77.74 173.637-173.637 173.637c-95.897 0-173.637-77.74-173.637-173.637s77.74-173.637 173.637-173.637zM437.073 435.371c-138.981 0-251.648 112.667-251.648 251.648s112.667 251.648 251.648 251.648c138.981 0 251.648-112.667 251.648-251.648s-112.667-251.648-251.648-251.648z" />
<glyph unicode="&#xe90a;" glyph-name="bmw" d="M519.414 938.408c-292.62 3.755-516.034-232.113-519.373-505.066-3.448-281.721 225.262-517.57 511.381-516.893 282.551 0.014 510.509 225.895 511.288 510.621 0.781 284.808-228.013 507.792-503.296 511.338zM500.599-65.857c-259.477 4.963-483.365 218.007-482.857 494.105 0.273 273.387 221.924 488.377 485.506 492.599 273.734 4.383 501.359-216.537 501.874-491.964 0.523-276.475-227.505-500.035-504.523-494.74zM511.436 900.429c-263.248-0.014-476.74-214.844-473.263-479.485 3.381-257.763 213.938-467.101 473.743-466.37 261.582 0.35 471.227 209.924 472.719 472.558 1.477 260.196-211.743 473.311-473.199 473.297zM442.835 874.624h36.921l34.013-87.268 32.663 87.268h37.902v-124.125h-24.731v83.080l-32.063-83.010h-27.693l-32.224 85.317v-85.317h-24.788v124.056zM127.518 669.808c23.165 27.122 45.498 54.035 68.781 80.099 8.294 9.289 19.729 15.679 32.641 9.45 13.485-6.51 22.753-16.941 22.084-33.387-0.055-1.331 0.125-2.676 0.070-1.604 10.411-0.842 21.024 0.628 29.618-2.863 21.574-8.774 25.623-32.613 9.546-52.864-15.95-20.084-32.814-39.442-49.311-59.087-5.511-6.572-11.121-13.046-17.317-20.3-32.244 27.024-63.727 53.414-96.111 80.557zM511.729 125.028c-164.070-1.122-302.46 135.032-302.683 298.182-0.244 171.149 132.815 305.86 302.585 306.342 163.888 0.466 299.679-134.203 302.355-295.324 2.738-164.6-127.88-308.015-302.257-309.2zM792.99 586.666l-22.3 28.947 43.686 64.398-72.354-29.596-24.601 28.119c0 0 58.063 74.119 78.739 100.612 1.074-0.815 21.604-22.523 21.604-22.523l-48.419-62.592 72.39 30.558 21.017-26.403-46.278-65.402c0 0 49.059 23.095 71.896 33.84 6.578-8.112 19.617-24.194 19.617-24.194l-114.997-55.763zM511.199 427.823v281.582c-155.018 2.976-286.217-130.412-281.896-282.628h281.637v-281.275c161.193-3.275 288.6 137.992 282.098 282.328-93.462-0.007-186.982-0.007-281.839-0.007zM266.517 673.098c5.707 7.102 3.943 16.885-2.942 22.23-6.793 5.268-15.54 4.801-21.429-2.007-12.689-14.662-24.995-29.659-37.972-45.122 8.042-6.808 15.631-13.241 24.307-20.592 13.185 15.708 25.889 30.376 38.036 45.491zM222.369 724.087c-7.163 5.951-15.874 5.498-22.012-1.672-11.457-13.387-22.656-26.99-34.969-41.7 7.937-6.697 15.205-12.83 22.983-19.395 12.32 14.629 24.244 28.461 35.778 42.614 5.714 7.011 4.703 14.773-1.779 20.154z" />
<glyph unicode="&#xe90b;" glyph-name="bar" horiz-adv-x="1120" d="M102.864 92.114h165.366c35.987 0 65.187 32.133 65.187 71.695v390.077c0 39.668-29.2 71.865-65.187 71.865h-165.366c-35.999 0-65.154-32.198-65.154-71.865v-390.077c0-39.562 29.154-71.695 65.154-71.695zM481.028 92.114h165.438c36.013 0 65.117 32.133 65.117 71.695v702.656c0 39.641-29.104 71.799-65.117 71.799h-165.438c-35.939 0-65.213-32.159-65.213-71.799v-702.656c-0.001-39.562 29.274-71.695 65.213-71.695zM859.215 92.114h165.413c36.013 0 65.262 32.133 65.262 71.695v182.208c0 39.682-29.25 71.842-65.262 71.842h-165.413c-35.963 0-65.213-32.16-65.213-71.842v-182.208c0-39.562 29.25-71.695 65.213-71.695zM1076.438 12.841h-1025.798c-17.087 0-31.067-15.35-31.067-34.237 0-18.861 13.98-34.317 31.067-34.317h1025.797c17.085 0 31.136 15.455 31.136 34.317 0 18.887-14.049 34.237-31.135 34.237z" />
<glyph unicode="&#xe90c;" glyph-name="close" d="M520.348 495.114l-172.665 172.665c-19.995 19.995-52.413 19.995-72.408 0s-19.995-52.413 0-72.408l172.665-172.665-172.665-172.665c-19.995-19.995-19.995-52.413 0-72.408s52.413-19.995 72.408 0l172.665 172.665 172.665-172.665c19.995-19.995 52.413-19.995 72.408 0s19.995 52.413 0 72.408l-172.665 172.665 172.665 172.665c19.995 19.995 19.995 52.413 0 72.408s-52.413 19.995-72.408 0l-172.665-172.665zM510.777 938.667c282.119 0 510.78-228.659 510.78-510.779s-228.659-510.779-510.78-510.779c-282.118 0-510.777 228.659-510.777 510.779s228.659 510.779 510.777 510.779z" />
<glyph unicode="&#xe90d;" glyph-name="import" d="M484.371 925.192l-232.737-232.735c-8.958-8.96-13.438-19.991-13.438-33.089 0-13.338 4.421-24.428 13.262-33.27 8.842-8.842 19.932-13.263 33.265-13.263 13.103 0 24.135 4.48 33.094 13.44l153.077 153.453v-539.265c0-12.842 4.548-23.816 13.646-32.919 9.103-9.097 20.075-13.645 32.917-13.645 12.849 0 23.821 4.548 32.919 13.645 9.103 9.103 13.653 20.076 13.653 32.919v539.265l153.070-153.453c9.448-8.96 20.48-13.44 33.094-13.44 12.849 0 23.821 4.548 32.919 13.646 9.103 9.098 13.653 20.072 13.653 32.919 0 12.613-4.482 23.644-13.44 33.094l-232.734 232.735c-8.958 8.958-19.991 13.438-33.094 13.438-13.136-0.037-24.167-4.517-33.125-13.475zM977.436 287.034c12.849 0 23.821-4.548 32.917-13.651 9.098-9.098 13.646-20.072 13.646-32.919v-186.164c0-38.794-13.449-71.643-40.355-98.548-27.388-27.39-60.119-41.084-98.195-41.084h-745.82c-38.047 0-71.013 13.578-98.893 40.738-27.161 27.879-40.738 60.846-40.738 98.894v186.164c0 12.849 4.548 23.821 13.646 32.919 9.103 9.101 20.075 13.651 32.923 13.651 12.842 0 23.816-4.548 32.919-13.651 9.098-9.098 13.646-20.072 13.646-32.919v-186.164c0-12.847 4.548-23.821 13.646-32.919 9.101-9.098 20.075-13.646 32.923-13.646h745.815c12.613 0 23.341 4.548 32.188 13.646 8.842 9.098 13.263 20.072 13.263 32.919v186.164c0 12.849 4.548 23.821 13.645 32.919 9.103 9.101 20.076 13.651 32.919 13.651h-0.099z" />
<glyph unicode="&#xe90e;" glyph-name="thumbsup" d="M878.791 611.001c-2.082 0-3.251-0.073-3.251-0.073l-225.065 6.868c43.362 209.357-75.984 320.301-154.269 320.301-2.484 0-4.822-0.11-7.197-0.329-77.956-7.123-91.948-83.107-91.948-83.107 4.238-176.626-118.177-240.847-156.022-256.482-19.544 12.713-42.777 20.238-67.874 20.238h-47.125c-69.006 0-124.971-55.892-124.971-124.898v-453.345c0-69.006 55.965-124.971 124.971-124.971h47.125c41.389 0 77.81 20.384 100.532 51.399 80.185-20.567 227.038-44.531 227.038-44.531 61.846-5.187 102.907-5.735 117.629-5.735 4.055 0 6.137 0.073 6.137 0.073l166.105 1.132c74.23 3.543 102.505 58.084 102.505 58.084s17.827 34.302 29.48 58.047c79.856 162.233 94.286 341.635 94.322 341.635 5.516 27.654 7.014 126.433 7.014 126.433-13.955 104.441-124.679 109.263-145.136 109.263zM225.038 40.173c0-28.64-23.27-51.837-51.837-51.837h-47.125c-28.64-0.037-51.874 23.197-51.874 51.837v453.345c0 28.64 23.233 51.837 51.837 51.837h47.125c28.567 0 51.837-23.233 51.837-51.837v-453.345h0.037zM945.24 389.479l-0.731-3.982-0.402-4.384c-0.183-1.571-14.612-168.151-86.979-315.187-11.398-23.124-28.75-56.586-28.786-56.732-0.804-0.95-12.42-17.316-41.097-18.667l-168.808-1.132c-13.626 0-51.216 0.511-108.642 5.224-42.668 7.014-145.319 25.024-208.006 40.257l0.95 511.868c75.874 42.96 167.42 137.282 167.53 298.894 3.215 8.366 10.338 18.010 25.425 19.398 0.073 0 0.073 0 0.073 0 10.009 0 31.38-8.987 51.508-33.754 21.699-26.594 54.65-87.856 31.709-198.617l-17.644-85.263 317.524-9.352c23.891-0.073 64.221-5.553 71.965-41.718-0.804-43.070-3.178-94.395-5.589-106.852z" />
<glyph unicode="&#xe90f;" glyph-name="checkmark" d="M797.542 560.963l-334.913-334.912c-9.755-9.753-27.421-14.197-42.055-13.546-14.739-0.652-32.623 3.792-42.378 13.546l-146.97 147.081c-18.317 18.318-18.317 48.123 0 66.548 18.318 18.317 48.123 18.317 66.548 0l122.691-122.8 310.633 310.632c18.317 18.317 48.124 18.317 66.551 0 18.317-18.425 18.317-48.233-0.107-66.549v0zM499.806 901.077c-261.967 0-474.293-212.326-474.293-474.294s212.326-474.294 474.293-474.294c261.969 0 474.296 212.326 474.296 474.294s-212.328 474.294-474.296 474.294v0z" />
<glyph unicode="&#xe910;" glyph-name="tool" d="M1024 938.667v-1024h-852.267c-94.933 0-171.733 76.8-171.733 171.733v680.533c0 94.933 76.8 171.733 171.733 171.733h681.6v-682.667h-680.533c-48 0-87.467-39.467-87.467-87.467v-81.067c0-48 39.467-87.467 87.467-87.467h765.867v938.667h85.333zM853.333 170.667h-682.667v-85.333h682.667v85.333z" />
<glyph unicode="&#xe911;" glyph-name="alarm" d="M101.338 749.87l11.413 11.413c34.238 51.356 79.888 97.007 136.95 131.244-17.119 22.825-51.356 39.944-85.594 39.944-57.063 0-102.713-45.65-102.713-97.007 0-39.944 11.413-68.475 39.944-85.594zM911.628 749.87l-11.413 11.413c-34.238 51.356-85.594 97.007-136.95 131.244 17.119 28.531 51.356 45.65 85.594 45.65 57.063 0 102.713-45.65 102.713-102.713 0-39.944-11.413-68.475-39.944-85.594v0zM506.447 368.988c0.669-0.027 1.339-0.041 2.009-0.041l165.433-4.035c32.28 0 56.489 24.21 56.489 56.489s-24.21 56.489-56.489 56.489l-115.926 2.827 2.682 109.961c0 32.28-24.21 56.489-56.489 56.489s-56.489-24.21-56.489-56.489l-4.035-165.433c0-32.28 24.21-56.489 56.489-56.489 2.179 0 4.284 0.074 6.326 0.231zM72.807 458.85c0 245.369 199.719 445.089 445.089 445.089s445.089-199.719 445.089-445.089c0-245.369-199.719-445.089-445.089-445.089s-445.089 199.719-445.089 445.089zM164.107-54.714c-17.119 0-28.531 5.706-39.944 17.119-22.825 22.825-22.825 57.063 0 79.888l119.832 114.125c22.825 22.825 57.063 22.825 79.888 0s22.825-57.063 0-79.888l-119.832-114.125c-11.413-11.413-28.531-17.119-39.944-17.119zM865.978-66.126c-17.119 0-28.531 5.706-39.944 17.119l-125.538 125.538c-22.825 22.825-22.825 57.063 0 79.888s57.063 22.825 79.888 0l125.538-125.538c22.825-22.825 22.825-57.063 0-79.888-11.413-11.413-22.825-17.119-39.944-17.119z" />
<glyph unicode="&#xe912;" glyph-name="base" d="M1023.771 419.188v21.488l-197.736 414.218c-5.715 12.001-17.945 19.774-31.318 19.774h-565.777c-13.373 0-25.489-7.658-31.318-19.774l-197.622-414.218v-76.923h0.343v-311.921c0-19.088 15.545-34.632 34.632-34.632h954.392c19.088 0 34.632 15.545 34.632 34.632v367.355h-0.229zM637.214 180.647h-249.971v66.75h249.971v-66.75zM872.326 281.458h-73.037v79.209h73.037v-79.209zM675.504 419.188c-33.832-54.978-93.953-92.010-163.332-92.010-69.265 0-129.5 37.033-163.333 92.010h-247.57l164.818 355.925c5.715 12.23 17.945 20.117 31.432 20.117h428.619c13.487 0 25.717-7.887 31.432-20.117l164.933-356.040-246.999 0.114zM310.549 670.073h419.018c13.601 0 24.688 10.973 24.688 24.688 0 13.602-11.087 24.688-24.688 24.688h-419.018c-13.601 0-24.688-10.973-24.688-24.688s11.087-24.688 24.688-24.688zM236.598 546.859c0-13.602 11.087-24.689 24.689-24.689h517.543c13.602 0 24.689 10.973 24.689 24.689 0 13.601-11.087 24.688-24.689 24.688h-517.658c-13.602-0.114-24.574-11.087-24.574-24.688z" />
<glyph unicode="&#xe913;" glyph-name="bell" d="M606.557 847.561c0 50.087-42.435 90.852-94.747 90.852-52.174 0-94.747-40.626-94.747-90.852 0-5.148 0.417-10.156 1.252-15.026-130.782-43.687-238.19-177.947-238.19-336.694v-125.078c0 0 0-180.034-46.191-181.564-27.409 0-48.556-20.452-48.556-45.495 0-25.183 21.148-45.356 47.304-45.356h757.979c26.296 0 47.304 20.313 47.304 45.356 0 25.322-21.148 45.356-47.304 45.356-47.443 0-47.443 180.312-47.443 180.312v126.33c0 159.025-100.313 293.286-238.19 336.833 0.974 5.009 1.53 9.878 1.53 15.026v0zM653.924 85.079c-0.139-75.269-63.165-136.347-142.052-136.347-78.469 0-141.912 60.8-142.052 136.347h284.103z" />
<glyph unicode="&#xe914;" glyph-name="flow" d="M978.821 360.503h-120.47c-21.588 0-39.573-15.337-44.059-35.809l-49.589-99.945-78.47 673.551c-2.925 25.068-25.383 42.995-50.161 40.050-6.602-0.79-12.662-3.065-18-6.338-15.133-5.043-27.25-17.852-30.396-34.827l-128.161-692.756-92.147 470.431c-4.853 24.755-28.618 40.853-53.103 35.958-0.5-0.104-0.957-0.342-1.456-0.461-18.986-0.104-36.602-12.169-42.749-31.436l-101.795-318.684c-0.882 0.058-1.72 0.268-2.618 0.268h-120.47c-24.948 0-45.176-20.456-45.176-45.702 0-25.232 20.229-45.702 45.176-45.702h120.47c7.426 0 73.125-9.253 79.25 33.801l63.986 200.306 106.323-542.853c0-21.571 15.088-40.78 36.808-44.899 24.515-4.642 48.133 11.709 52.721 36.524l123.191 665.874 61.986-532.113c2.926-25.070 25.383-42.995 50.161-40.035 1.898 0.222 32.865-6.689 49.839 26.155l97.898 197.242h91.014c24.942 0 45.176 20.47 45.176 45.702-0.003 25.244-20.238 45.699-45.179 45.699z" />
<glyph unicode="&#xe915;" glyph-name="log" d="M936.667 562.617v192.137c0 67.963-55.699 123.151-123.151 123.151h-596.339c-67.963 0-123.151-55.699-123.151-123.151v-81.249h99.645c28.105 0 51.1-22.995 51.1-51.1s-22.995-51.1-51.1-51.1h-99.645v-229.951h99.645c29.638 0 53.655-24.017 53.655-53.655s-24.017-53.655-53.655-53.655h-99.645v-76.139c0-67.963 55.699-123.151 123.151-123.151h595.828c67.963 0 123.151 55.699 123.151 123.151v186.516c50.078 11.242 87.381 55.699 87.381 108.843 0.511 53.655-37.303 98.112-86.87 109.354v0zM690.364 259.592h-336.75c-15.33 0-28.105 12.775-28.105 28.105s12.775 28.105 28.105 28.105h336.75c15.841 0 28.105-12.775 28.105-28.105s-11.753-28.105-28.105-28.105zM690.364 427.201h-336.75c-15.33 0-28.105 12.775-28.105 28.105s12.775 28.105 28.105 28.105h336.75c15.841 0 28.105-12.775 28.105-28.105 0-15.841-11.753-28.105-28.105-28.105zM690.364 594.299h-336.75c-15.33 0-28.105 12.775-28.105 28.105 0 15.841 12.775 28.105 28.105 28.105h336.75c15.841 0 28.105-12.775 28.105-28.105s-11.753-28.105-28.105-28.105zM912.649 398.074c-30.66 0-55.188 24.528-55.188 55.188 0 30.149 24.528 55.188 55.188 55.188 30.149 0 55.188-24.528 55.188-55.188s-24.528-55.188-55.188-55.188zM193.159 650.509h-165.054c-15.33 0-28.105-12.264-28.105-28.105 0-15.33 12.264-28.105 28.105-28.105h165.054c15.841 0 28.105 12.775 28.105 28.105s-11.753 28.105-28.105 28.105zM193.159 315.803h-165.054c-15.33 0-28.105-12.775-28.105-28.105s12.264-28.105 28.105-28.105h165.054c15.841 0 28.105 12.775 28.105 28.105s-11.753 28.105-28.105 28.105z" />
<glyph unicode="&#xe916;" glyph-name="warn" d="M848.705 732.067c-152.097 193.566-432.591 227.133-624.224 73.099-193.532-152.082-227.129-430.541-75.059-624.107 20.38-24.318 42.855-46.8 67.168-67.188l-90.868-90.832c-11.823-11.849-7.864-21.745-1.926-29.609s17.762-9.896 29.612 1.953l94.8 94.817c146.185-100.755 343.73-104.713 497.806-1.953l92.794-92.864c11.903-11.849 21.774-9.843 29.638-1.953 7.918 5.938 9.844 17.813-1.926 29.609l-88.888 88.879c189.626 152.082 221.164 428.589 71.073 620.148v0zM663.439 478.482l-233.255-304.992c-0.477-0.616-1.306-0.84-2.028-0.547s-1.162 1.030-1.075 1.804l21.105 231.118c0.037 0.486-0.139 0.964-0.481 1.311-0.314 0.384-0.788 0.601-1.284 0.588h-108.308c-0.67 0.006-1.284 0.374-1.605 0.963-0.294 0.588-0.241 1.364 0.187 1.819l233.255 304.965c0.467 0.637 1.304 0.88 2.039 0.591s1.183-1.037 1.091-1.821l-21.078-231.091c-0.048-0.49 0.118-0.978 0.455-1.337 0.348-0.374 0.802-0.588 1.311-0.588h108.308c0.642 0 1.311-0.374 1.578-0.963 0.293-0.595 0.209-1.308-0.214-1.819v0zM188.905 899.956c-43.512 0.107-85.272-17.131-116.037-47.898s-47.998-72.525-47.884-116.033c-0.357-28.139 7.914-55.712 23.7-79.010l221.244 221.222c-24.603 14.298-52.567 21.794-81.024 21.718v0zM811.176 899.956c-28.431 0.072-56.368-7.424-80.944-21.718l221.191-221.222c13.883 23.698 21.747 49.374 23.754 79.010 0.085 43.512-17.167 85.267-47.944 116.030s-72.54 48-116.057 47.901z" />
<glyph unicode="&#xe917;" glyph-name="home" d="M563.198 938.667h-102.394l-460.804-486.399c0 0 0.905-102.401 51.204-102.401h76.798v-332.825c0-100.301 102.4-102.401 102.4-102.401h204.799v358.427c0 25.645 25.602 25.597 25.602 25.597h102.399c0 0 25.602-0.85 25.602-25.597v-358.427h204.799c105.149 0 102.4 102.401 102.4 102.401v358.427h76.799c49.6 0 51.198 76.794 51.198 76.794l-460.802 486.404z" />
<glyph unicode="&#xe918;" glyph-name="avatar" d="M512 711.167c-74.1 0-134.3-60.3-134.3-134.3s60.2-134.4 134.3-134.4c74.1 0 134.3 60.3 134.3 134.3s-60.2 134.4-134.3 134.4zM512 938.667c-282.8 0-512-229.2-512-512s229.2-512 512-512c282.8 0 512 229.2 512 512s-229.2 512-512 512zM749.9 158.567c-14 0-25.3 11.3-25.3 25.3 0 116-93.4 206.8-212.6 206.8s-212.6-90.8-212.6-206.8c0-14-11.3-25.3-25.3-25.3s-25.3 11.3-25.3 25.3c0 70.1 27.5 135.3 77.4 183.6 24.5 23.7 53.2 42.1 84.5 54.6-10.5 6.9-20.3 14.9-29.4 24-34.9 34.9-54.2 81.4-54.2 130.8s19.2 95.9 54.2 130.8c34.9 34.9 81.4 54.2 130.8 54.2s95.9-19.2 130.8-54.2c34.8-35 54.1-81.5 54.1-130.9s-19.2-95.9-54.2-130.8c-9.1-9.1-18.9-17.1-29.4-24 31.3-12.5 59.9-30.9 84.5-54.6 49.9-48.2 77.4-113.4 77.4-183.6-0.1-13.9-11.4-25.2-25.4-25.2z" />
<glyph unicode="&#xe919;" glyph-name="file" d="M896 663.467h-263.714l-10.577 70.929c-10.791 72.365-54.735 121.071-109.71 121.071h-384c-24.815 0-44.8-20.138-44.8-44.8v-768c0-24.662 19.985-44.8 44.8-44.8h768c24.815 0 44.8 20.138 44.8 44.8v576c0 28.473-18.082 44.8-44.8 44.8zM896 746.667c64 0 128-45.363 128-128v-576c0-69.978-56.603-128-128-128h-768c-71.397 0-128 58.022-128 128v768c0 69.978 56.603 128 128 128h384c110.633 0 177.528-94.945 192-192h192zM489.6 554.667v0 0c22.975 0 41.6-18.625 41.6-41.6v-364.8c0-22.975-18.625-41.6-41.6-41.6v0 0c-22.975 0-41.6 18.625-41.6 41.6v364.8c0 22.975 18.625 41.6 41.6 41.6zM713.6 330.667v0 0c0-22.975-18.625-41.6-41.6-41.6h-364.8c-22.975 0-41.6 18.625-41.6 41.6v0 0c0 22.975 18.625 41.6 41.6 41.6h364.8c22.975 0 41.6-18.625 41.6-41.6z" />
<glyph unicode="&#xe91a;" glyph-name="search" d="M507.762 51.604c243.632 0 441.132 198.091 441.132 442.451 0 244.35-197.5 442.451-441.132 442.451s-441.132-198.101-441.132-442.451c0-244.36 197.5-442.451 441.132-442.451zM507.762 199.075c-162.424 0-294.095 132.074-294.095 294.981s131.67 294.961 294.095 294.961c162.415 0 294.085-132.054 294.085-294.961s-131.67-294.971-294.085-294.971v-0.010zM730.001 166.637l166.933-167.219c13.778-13.817 32.491-21.576 52.003-21.563s38.215 7.797 51.975 21.632c28.7 28.852 28.669 75.479-0.069 104.293l-166.943 167.219c-13.778 13.817-32.491 21.576-52.003 21.563s-38.215-7.797-51.975-21.632c-28.697-28.855-28.662-75.481 0.079-104.293v0z" />
<glyph unicode="&#xe91b;" glyph-name="nodata" horiz-adv-x="1147" d="M600.323-15.133h-577.454c-6.079-0.006-11.91 2.387-16.202 6.649s-6.691 10.042-6.667 16.061c0 12.536 10.391 22.71 22.869 22.71h104.022c-8.028 13.774-12.238 29.403-12.203 45.306v658.803c0.012 24.093 9.699 47.194 26.926 64.211s40.581 26.556 64.916 26.514h68.721v22.823c0.012 24.093 9.699 47.194 26.926 64.211s40.581 26.556 64.916 26.514h550.319c24.339 0.054 47.7-9.48 64.93-26.5s26.912-40.127 26.912-64.224v-658.803c0-16.51-4.45-31.975-12.226-45.306h126.891c12.684 0 22.961-10.083 22.961-22.71 0-12.536-10.207-22.71-22.938-22.71h-275.251v-22.823c0-16.51-4.45-31.975-12.226-45.306h12.295c12.616 0 22.869-10.083 22.869-22.71 0-12.536-10.391-22.71-22.869-22.71h-120.675c10.482-17.395 8.212-40.196-7.042-55.298-8.588-8.543-20.26-13.345-32.434-13.345s-23.846 4.803-32.434 13.345l-55.853 55.298zM684.183 30.286h72.942c25.231 0 45.692 20.211 45.692 45.533v659.644c0 24.526-19.818 44.238-44.27 44.238h-553.714c-24.451 0-44.27-19.803-44.27-44.238v-659.644c0-25.139 20.644-45.533 45.669-45.533h348.193l-11.79 11.695c-11.635 11.459-16.186 28.206-11.928 43.898l-21.653 21.461c-67.465-49.721-162.249-39.493-217.31 23.452s-51.75 157.284 7.591 216.293c59.521 59.14 155.11 62.617 218.853 7.96s73.92-148.821 23.299-215.593l21.676-21.461c15.845 4.236 32.767-0.262 44.338-11.786l76.68-75.918zM848.691 143.833h69.019c25.25 0.125 45.656 20.42 45.669 45.419v658.576c0 25.162-20.46 45.419-45.669 45.419h-550.938c-25.241-0.137-45.634-20.428-45.646-45.419v-22.71h435.723c24.339 0.054 47.7-9.48 64.93-26.5s26.912-40.127 26.912-64.224v-590.561zM493.984 154.371c28.977 28.689 40.294 70.503 29.687 109.693s-41.524 69.8-81.107 80.301c-39.583 10.501-81.818-0.703-110.795-29.392-44.794-44.349-44.794-116.253 0-160.602s117.42-44.349 162.215 0v0zM252.314 688.862c0 12.533 10.256 22.697 22.915 22.71h252.336c12.668 0 22.938-10.167 22.938-22.71s-10.27-22.71-22.938-22.71h-252.314c-6.089-0.018-11.934 2.369-16.24 6.631s-6.716 10.050-6.698 16.078zM252.314 575.314c0 12.536 10.207 22.71 22.777 22.71h367.323c12.57 0 22.777-10.083 22.777-22.71 0-12.536-10.207-22.71-22.777-22.71h-367.323c-6.067 0.006-11.881 2.406-16.156 6.668s-6.658 10.035-6.621 16.042v0zM252.314 461.767c0 12.536 10.23 22.71 22.892 22.71h160.655c12.639 0 22.892-10.083 22.892-22.71 0-12.536-10.23-22.71-22.892-22.71h-160.655c-6.083-0.012-11.92 2.378-16.217 6.641s-6.699 10.046-6.675 16.069z" />
<glyph unicode="&#xe91c;" glyph-name="down" horiz-adv-x="1092" d="M909.099 604.261c-18.547 18.549-48.621 18.549-67.168 0l-247.932-247.932v534.037c0 26.23-21.265 47.495-47.495 47.495s-47.495-21.265-47.495-47.495v-534.037l-247.932 247.932c-18.549 18.549-48.621 18.549-67.169 0-18.547-18.549-18.547-48.621 0-67.169l328.997-328.995c0.56-0.56 1.137-1.108 1.724-1.64 0.258-0.234 0.524-0.453 0.785-0.681 0.321-0.279 0.64-0.562 0.969-0.833 0.355-0.291 0.717-0.568 1.078-0.847 0.245-0.19 0.486-0.385 0.736-0.57 0.407-0.302 0.82-0.591 1.235-0.879 0.215-0.15 0.429-0.304 0.648-0.451 0.431-0.288 0.866-0.562 1.305-0.836 0.217-0.136 0.432-0.275 0.651-0.407 0.432-0.26 0.869-0.507 1.306-0.752 0.241-0.135 0.48-0.272 0.724-0.404 0.415-0.223 0.836-0.434 1.255-0.643 0.28-0.139 0.559-0.282 0.842-0.416 0.386-0.184 0.776-0.355 1.165-0.527 0.329-0.146 0.659-0.293 0.993-0.432 0.347-0.144 0.697-0.277 1.046-0.412 0.385-0.149 0.769-0.298 1.16-0.437 0.306-0.109 0.614-0.209 0.921-0.312 0.435-0.146 0.872-0.291 1.314-0.424 0.274-0.082 0.549-0.157 0.823-0.234 0.473-0.133 0.948-0.266 1.428-0.385 0.256-0.063 0.516-0.119 0.773-0.179 0.496-0.114 0.991-0.228 1.493-0.326 0.261-0.051 0.522-0.093 0.784-0.139 0.496-0.089 0.991-0.179 1.491-0.252 0.301-0.044 0.602-0.076 0.902-0.114 0.461-0.059 0.92-0.12 1.385-0.166 0.407-0.040 0.815-0.063 1.224-0.093 0.363-0.025 0.724-0.060 1.089-0.078 0.784-0.038 1.567-0.060 2.351-0.060s1.567 0.021 2.351 0.060c0.366 0.017 0.725 0.052 1.089 0.078 0.408 0.030 0.817 0.054 1.224 0.093 0.464 0.046 0.925 0.108 1.385 0.166 0.301 0.038 0.602 0.070 0.902 0.114 0.5 0.073 0.996 0.163 1.491 0.252 0.261 0.047 0.522 0.089 0.784 0.139 0.502 0.098 0.997 0.212 1.493 0.326 0.258 0.060 0.516 0.114 0.773 0.179 0.48 0.119 0.955 0.252 1.428 0.385 0.275 0.078 0.551 0.152 0.823 0.234 0.442 0.133 0.877 0.279 1.314 0.424 0.307 0.103 0.616 0.203 0.921 0.312 0.389 0.139 0.776 0.288 1.16 0.439 0.348 0.135 0.698 0.268 1.045 0.412 0.334 0.139 0.665 0.287 0.996 0.432 0.389 0.171 0.777 0.344 1.164 0.526 0.283 0.135 0.562 0.277 0.842 0.416 0.421 0.209 0.841 0.421 1.255 0.643 0.244 0.131 0.483 0.268 0.724 0.404 0.439 0.245 0.875 0.491 1.306 0.752 0.22 0.133 0.434 0.272 0.651 0.407 0.437 0.272 0.874 0.548 1.305 0.836 0.218 0.147 0.431 0.301 0.648 0.451 0.415 0.288 0.828 0.575 1.235 0.879 0.249 0.185 0.491 0.38 0.736 0.57 0.361 0.28 0.724 0.556 1.078 0.847 0.329 0.271 0.648 0.554 0.969 0.833 0.261 0.226 0.527 0.446 0.785 0.681 0.587 0.534 1.164 1.080 1.724 1.64l328.995 328.995c18.545 18.549 18.545 48.623-0.003 67.169zM1091.587 248.003c0 26.232-21.264 47.495-47.495 47.495s-47.495-21.264-47.495-47.495c0-0.071 0.005-0.141 0.005-0.212h-0.005v-112.915c0-35.674-29.024-64.698-64.698-64.698h-770.789c-35.675 0-64.698 29.024-64.698 64.698v112.917h-0.005c0 0.071 0.005 0.141 0.005 0.212 0 26.232-21.264 47.495-47.495 47.495s-47.495-21.264-47.495-47.495c0-0.071 0.005-0.141 0.005-0.212h-0.005v-112.915c0-88.053 71.637-159.689 159.689-159.689h770.789c88.053 0 159.689 71.636 159.689 159.689v112.915h-0.005c0 0.070 0.005 0.141 0.005 0.211z" />
<glyph unicode="&#xe91d;" glyph-name="arrow-t" horiz-adv-x="569" d="M284.444 824.889v0 0c31.419 0 56.889-25.47 56.889-56.889v-796.444c0-31.419-25.47-56.889-56.889-56.889v0 0c-31.419 0-56.889 25.47-56.889 56.889v796.444c0 31.419 25.47 56.889 56.889 56.889zM47.471 527.995c-26.245 0-47.471 21.062-47.471 47.307 0 12.201 4.684 23.237 12.201 31.597l234.531 312.94c15.715 20.725 45.306 25.077 66.2 9.361 3.677-2.674 6.854-5.857 9.361-9.366l237.216-316.275c15.542-20.73 11.364-50.48-9.529-66.031-8.529-6.522-18.392-9.53-28.253-9.53l-474.256-0.004z" />
<glyph unicode="&#xe91e;" glyph-name="address-b" d="M512.026 39.434c-182.814 0-331.016 148.202-331.016 331.014 0 182.815 331.016 487.663 331.016 487.663s331.011-304.848 331.011-487.663c-0.001-182.812-148.198-331.014-331.011-331.014v0zM512.026 492.434c-92.945 0-168.289-75.344-168.289-168.289 0-92.94 75.344-168.284 168.289-168.284 92.94 0 168.283 75.344 168.283 168.284 0 92.945-75.344 168.289-168.283 168.289v0z" />
<glyph unicode="&#xe91f;" glyph-name="address-t" d="M512.026 856.566c-182.814 0-331.016-148.202-331.016-331.014 0-182.815 331.016-487.663 331.016-487.663s331.011 304.848 331.011 487.663c-0.001 182.812-148.198 331.014-331.011 331.014v0zM512.026 403.566c-92.945 0-168.289 75.344-168.289 168.289 0 92.94 75.344 168.284 168.289 168.284 92.94 0 168.283-75.344 168.283-168.284 0-92.945-75.344-168.289-168.283-168.289v0z" />
<glyph unicode="&#xe920;" glyph-name="arrow-right" d="M327.438-9.15l489.1 403.1c18.9 16.9 18.9 46.5 0 63.4l-489.1 405.1c-27.4 24.4-70.8 5-70.8-31.7v-808.1c0-36.8 43.4-56.3 70.8-31.8z" />
<glyph unicode="&#xe921;" glyph-name="delete" horiz-adv-x="853" d="M797.517 811.497h-205.274v71.354c0 30.778-25.035 55.816-55.816 55.816h-219.534c-30.774 0-55.809-25.038-55.809-55.816v-71.354h-205.269c-30.78 0-55.815-25.038-55.815-55.813v-86.823c0-30.777 25.035-55.812 55.815-55.812h34.326v-516.271c0-71.815 58.422-130.236 130.23-130.236h412.586c71.814 0 130.235 58.421 130.235 130.236v516.271h34.325c30.775 0 55.816 25.035 55.816 55.812v86.823c0 30.774-25.041 55.813-55.816 55.813zM323.1 876.649h207.129v-65.151h-207.129v65.151zM701.172 96.773c0-37.617-30.598-68.215-68.214-68.215h-412.586c-37.616 0-68.221 30.598-68.221 68.215v516.277h549.021v-516.277zM791.311 675.065h-729.302v74.417h246.327c2.787-0.43 5.648-0.657 8.556-0.657h219.534c2.91 0 5.77 0.227 8.564 0.657h246.32v-74.417zM427.906 123.747c17.121 0 31.005 13.878 31.005 31.005v349.77c0 17.124-13.884 31.008-31.005 31.008-17.127 0-31.010-13.884-31.010-31.008v-349.77c0-17.126 13.883-31.005 31.010-31.005zM588.522 123.747c17.127 0 31.010 13.878 31.010 31.005v349.77c0 17.124-13.884 31.008-31.010 31.008s-31.004-13.884-31.004-31.008v-349.77c0-17.126 13.877-31.005 31.004-31.005zM267.284 123.747c17.127 0 31.005 13.878 31.005 31.005v349.77c0 17.124-13.878 31.008-31.005 31.008s-31.004-13.884-31.004-31.008v-349.77c0-17.126 13.878-31.005 31.004-31.005z" />
<glyph unicode="&#xe922;" glyph-name="heart" horiz-adv-x="1170" d="M682.155 896.77c-23.759-14.103-183.167-101.181-293.535-263.339-9.224-13.864-27.688-18.082-42.017-9.597-6.981 4.362-11.902 11.362-13.644 19.407s-0.155 16.454 4.398 23.312c45.61 69.039 100.957 131.127 164.324 184.337 5.902 4.904 9.094 12.341 8.585 19.998s-4.66 14.605-11.159 18.684l-11.002 7.198c-177.315 112.651-534.93-0.176-482.964-377.043 43.831-316.417 282.943-486.534 440.186-565.535 23.408-11.704 80.114-36.75 140.038-36.75 61.914 0 114.523 24.227 137.873 35.931 157.243 78.651 397.935 248.826 441.766 566.296 52.2 376.868-292.599 490.396-482.906 377.102h0.059z" />
<glyph unicode="&#xe923;" glyph-name="repair" d="M772.638 503.048l213.22 213.22c68.955-145.085 44.899-323.316-75.174-443.32-120.005-120.073-298.235-144.129-443.32-75.174l-246.98-246.98c-51.116-49.061-132.080-48.238-182.189 1.851s-50.961 131.054-1.919 182.188l247.048 247.048c-68.955 145.017-44.968 323.247 75.105 443.32s298.303 144.129 443.32 75.105l-213.22-213.152v-184.107h184.107zM174.322 88.84c-25.42 25.401-66.619 25.386-92.020-0.034s-25.386-66.619 0.034-92.020c16.444-16.432 40.405-22.842 62.857-16.817s39.984 23.57 45.993 46.027c6.008 22.457-0.42 46.413-16.864 62.844v0z" />
<glyph unicode="&#xe924;" glyph-name="note-man" horiz-adv-x="904" d="M803.137 837.491h-50.196v100.392h-100.392v-100.392h-401.569v100.392h-100.392v-100.392h-50.196c-55.467 0-100.392-44.925-100.392-100.392v-702.745c0-55.467 44.925-100.392 100.392-100.392h702.745c55.467 0 100.392 44.925 100.392 100.392v702.745c0 55.467-44.925 100.392-100.392 100.392zM451.765 686.902c83.075 0 150.588-67.514 150.588-150.588 0-83.325-67.514-150.588-150.588-150.588s-150.588 67.263-150.588 150.588c0 83.075 67.514 150.588 150.588 150.588v0zM752.941 84.549h-602.353v50.196c0 100.392 200.784 155.608 301.176 155.608s301.176-55.216 301.176-155.608v-50.196z" />
<glyph unicode="&#xe925;" glyph-name="current" horiz-adv-x="775" d="M383.945 901.197c1.463 0 3.277 0.732 5.501 2.165 4.389 2.985 10.3 8.106 17.616 15.421 8.808 8.047 17.586 13.958 26.365 17.616 8.808 3.716 20.571 2.575 35.202-3.307 7.374-2.165 13.197-5.267 17.616-9.305s8.632-7.901 12.7-11.588c4.009-3.599 8.398-6.73 13.197-9.305 4.74-2.575 10.798-3.833 18.113-3.833 7.374 0 13.607 1.083 18.698 3.248 5.15 2.224 10.125 4.243 14.865 6.057 4.799 1.844 9.539 3.131 14.338 3.833 4.74 0.79 10.447 0 17.030-2.165 7.374-2.926 12.29-7.14 14.865-12.641s3.307-11.207 2.165-17.089c-1.083-5.823-3.658-11.705-7.667-17.557-4.067-5.94-9.042-10.622-14.865-14.338-13.958-8.808-24.58-17.762-31.896-26.98-7.374-9.159-14.689-18.874-22.005-29.145-3.716-5.15-7.725-10.973-12.114-17.616-4.389-6.584-8.457-13.197-12.114-19.781-4.389-8.047-9.159-15.772-14.28-23.146h-227.746c-5.15 8.808-10.3 17.265-15.421 25.312-4.419 7.374-9.188 14.689-14.309 22.005-5.15 7.374-9.539 13.958-13.197 19.781-7.345 11.032-15.597 20.747-24.785 29.203s-18.142 15.948-26.95 22.561c-9.51 6.584-16.123 15.538-19.81 26.98-3.658 11.324-0.38 21.039 9.92 29.145 5.121 3.599 10.973 5.092 17.616 4.331 6.584-0.732 13.578-2.165 20.893-4.331 7.345-2.224 14.485-4.448 21.449-6.642 6.964-2.224 13.373-2.575 19.254-1.083 10.271 2.165 17.967 5.999 23.088 11.558 5.15 5.501 13.958 12.29 26.394 20.337 9.539 5.882 20.161 7.901 31.925 6.057s20.542-5.706 26.394-11.558c2.955-3.716 6.057-6.789 9.364-9.364 3.277-2.517 6.76-4.975 10.417-7.14 3.716-2.897 7.784-5.501 12.173-7.696v0zM508.25 681.177c8.808-11.705 19.84-24.58 33.037-38.509 10.973-12.466 24.58-26.57 40.703-42.342s34.851-32.451 56.124-50.067c17.616-15.363 35.787-33.534 54.456-54.456s35.027-45.327 48.984-73.155c13.899-27.887 23.673-59.958 29.145-96.243 5.501-36.343 4.565-76.871-2.751-121.613-6.642-36.694-19.664-71.341-39.094-103.968-19.43-32.686-45.268-61.099-77.544-85.269-32.305-24.229-70.638-43.483-114.999-57.792s-94.75-21.42-151.255-21.42c-57.939 0-109.264 8.223-154.035 24.756s-82.694 37.953-113.917 64.347c-31.135 26.394-55.89 55.949-74.238 88.576s-30.462 65.108-36.285 97.384c-6.642 35.963-7.55 70.404-2.78 103.382 4.77 33.037 13.373 64.025 25.868 92.994 12.466 28.969 28.062 55.568 46.761 79.797 18.728 24.17 39.094 45.824 61.070 64.874 19.050 16.913 36.314 32.861 51.706 47.902 15.421 15.041 28.238 28.794 38.509 41.259 12.466 13.899 23.497 27.155 33.037 39.621l247.498-0.059zM391.67 343.318l-52.876 52.876c-7.315 7.315-12.466 12.817-15.363 16.504-5.852 5.092-13.578 9.364-23.088 12.641-9.539 3.307-17.616 1.317-24.229-6.057-5.823-8.047-7.315-15.948-4.389-23.673 2.955-7.725 6.233-13.782 9.92-18.113l16.474-15.421c8.076-8.808 16.884-18.347 26.394-28.647 11.032-11.705 23.146-24.17 36.314-37.368l-1.112-23.088h-74.823c-6.584 0-12.29-2.575-17.030-7.725-4.799-5.15-7.14-10.622-7.14-16.504s2.165-10.973 6.584-15.363c4.419-4.389 10.3-6.642 17.616-6.642h74.823v-38.509h-74.823c-6.584 0-12.29-1.99-17.030-5.999-4.799-4.067-7.14-9.364-7.14-16.006-0.732-5.823 1.258-10.798 6.057-14.865 4.74-4.009 10.798-6.057 18.113-6.057h74.823v-21.946c0.732-10.3 4.067-17.44 9.92-21.478s13.197-6.057 22.034-6.057c8.808-0.673 15.948 1.99 21.449 8.223 5.472 6.291 8.252 12.7 8.252 19.313v21.946h76.988c7.315 0 13.373 1.668 18.172 4.975 4.74 3.307 6.73 8.632 5.999 15.948 0 15.421-10.242 23.146-30.813 23.146h-70.346l1.083 37.368 71.487 1.141c10.3-0.79 17.616 1.258 22.005 5.999 4.389 4.799 6.584 10.447 6.584 17.089 0 5.823-2.341 11.207-7.14 15.948-4.74 4.74-12.29 7.14-22.532 7.14h-71.487v20.922c12.407 11.705 23.79 23.088 34.061 34.061 8.808 8.808 17.616 17.821 26.394 26.98 8.808 9.188 15.421 15.597 19.84 19.254 16.855 14.631 20.513 27.477 10.973 38.509-5.092 6.584-11.705 9.891-19.781 9.891s-15.421-2.985-22.005-8.808c-3.658-2.985-9.891-8.223-18.757-15.948-8.808-7.725-17.616-15.597-26.394-23.673-10.271-9.51-21.595-20.132-34.061-31.925v0z" />
<glyph unicode="&#xe926;" glyph-name="car-cross" horiz-adv-x="1289" d="M1255.769 639.401h-120.631c-5.736 0-11.012-1.71-15.741-4.264l-54.388 163.802c-17.394 93.187-82.976 138.124-163.569 138.124h-510.866c-92.52 0-148.673-60.361-163.576-138.033l-54.528-164.358c-4.959 2.879-10.589 4.729-16.704 4.729h-120.658c-18.536 0-33.587-15.022-33.587-33.614v-29.145c0-18.536 15.051-33.587 33.587-33.587l45.682-7.804c-14.418-28.188-22.651-60.446-22.651-97.973l-16.917-193.341c0-5.601 0.416-11.307 1.111-17.050-0.639-3.511-1.111-7.17-1.111-10.906v-232.599c0-33.095 26.866-59.918 59.953-59.918h91.513c33.115 0 59.94 26.823 59.94 59.918v74.764h786.713v-74.764c0-33.095 26.839-59.918 59.953-59.918h91.506c33.094 0 59.954 26.823 59.954 59.918v232.599c0 3.743-0.465 7.402-1.113 10.906 0.668 5.743 1.113 11.45 1.113 17.057l-16.917 193.334c0 37.619-8.261 69.903-22.736 98.177l44.662 7.6c18.569 0 33.585 15.051 33.585 33.587v29.145c0.007 18.592-15.017 33.614-33.578 33.614v0 0zM267.334 673.825l39.934 106.29 0.562 2.49c3.968 21.498 12.849 25.326 25.951 41.926h625.201c13.222-17.057 21.462-21.384 25.113-41.686l40.575-109.019 14.847-59.221c-3.37-43.333-55.436-77.559-98.76-77.559h-589.517c-43.354 0-95.419 34.227-98.782 77.559l14.876 59.221zM295.326 168.355c-50.151 0-90.782 40.638-90.782 90.782 0 50.149 40.623 90.78 90.782 90.78 50.144 0 90.78-40.623 90.78-90.78 0-50.144-40.636-90.782-90.78-90.782v0 0zM802.336 235.324h-0.007c0-14.932-12.089-26.999-27.007-26.999h-254.666c-14.912 0-27.008 12.068-27.008 26.999v75.877c0 14.903 12.089 26.972 27.008 26.972h254.666c14.917 0 27.014-12.069 27.014-26.972v-75.877zM996.655 168.355c-50.151 0-90.809 40.638-90.809 90.782 0 50.149 40.658 90.78 90.809 90.78 50.144 0 90.773-40.623 90.773-90.78 0.007-50.144-40.629-90.782-90.773-90.782v0 0z" />
<glyph unicode="&#xe927;" glyph-name="man-car" d="M1006.488 355.325c0-27.898-22.634-50.489-50.489-50.489h-1.449l-19.053-324.014c0-27.898-8.269-50.489-36.103-50.489h-71.504c-27.898 0-39.577 22.613-39.577 50.489l-19.075 324.014h-10.401c-27.898 0-50.468 22.613-50.468 50.489l-21.035 307.902c0 27.898 22.613 50.489 50.489 50.489h234.757c27.898 0 50.489-22.613 50.489-50.489l-16.581-307.902zM861.84 737.543c-55.349 0-100.211 44.863-100.211 100.211 0 55.37 44.863 100.233 100.211 100.233s100.233-44.863 100.233-100.233c0-55.349-44.905-100.211-100.233-100.211zM687.29 104.199c0-48.038-38.959-43.499-87.040-43.499v-50.319c0-28.559-28.559-51.662-57.118-51.662-28.537 0-51.662 23.103-51.662 51.662v50.319h-301.892v-53.026c0-27.067-31.436-47.612-58.46-47.612-27.046 0-53.026 20.567-53.026 47.612v53.026c-48.081 0-78.068-4.54-78.068 43.499v187.657c0 47.378 29.198 116.217 76.086 118.135l60.378 131.264c24.041 47.761 68.797 85.144 116.878 85.144h179.835c48.038 0 103.153-37.595 126.277-87.040l52.194-130.539c42.668-9.164 75.617-67.305 75.617-111.507v-193.113zM79.457 281.69c0-35.677 28.878-64.598 64.598-64.598 35.656 0 64.577 28.921 64.577 64.598s-28.921 64.556-64.577 64.556c-35.698 0-64.598-28.878-64.598-64.556zM398.889 571.54l-113.148-0.746c-111.72-18.776-123.698-121.098-123.186-154.303l372.117-0.128c0.021 28.708-7.161 137.018-135.782 155.176zM542.472 346.246c-35.677 0-64.598-28.878-64.598-64.556s28.921-64.598 64.598-64.598c35.677 0 64.577 28.921 64.577 64.598s-28.9 64.556-64.577 64.556z" />
<glyph unicode="&#xe928;" glyph-name="man-gift" horiz-adv-x="896" d="M642.71 862.544v0c8.627 0 24.351-1.344 34.513-10.737 2.301-2.107 9.202-8.627 9.202-24.544 0-18.023-9.779-46.4-37.197-71.902-33.554-31.255-88.967-54.838-128.657-54.838-11.507 0-16.873 2.107-17.831 2.107h-0.193c-7.288 14.957 8.82 80.145 55.029 123.29 24.734 22.816 56.564 36.623 85.132 36.623v0l0.002 0.002zM642.71 938.664c-46.017 0-96.636-19.557-136.904-57.138-69.409-64.615-109.673-183.686-55.798-234.115 17.257-16.107 42.373-23.2 70.559-23.2 59.632 0 133.642 31.444 180.617 75.164 69.215 64.615 81.872 157.8 27.803 208.035-22.625 21.091-53.303 31.444-86.283 31.255v0 0h0.004zM253.29 862.544c28.57 0 60.396-13.806 84.941-36.813 46.784-43.525 62.699-109.291 56.179-122.328 0 0-4.986-3.067-18.98-3.067-39.882 0-95.102 23.583-128.657 54.838-27.419 25.5-37.197 53.878-37.197 71.902 0 16.107 6.902 22.433 9.202 24.544 10.161 9.585 26.077 10.929 34.513 10.929v0l-0.001-0.004zM253.29 938.664c-33.17 0-63.657-10.161-86.283-31.255-53.878-50.234-41.415-143.422 27.996-208.035 46.976-43.909 120.989-75.164 180.617-75.164 28.186 0 53.303 7.093 70.559 23.2 53.878 50.234 13.422 169.305-55.798 234.115-40.458 37.579-91.075 57.138-137.092 57.138v0 0 0zM895.998 325.676v261.34c0 41.032-33.554 74.587-74.587 74.587h-336.118v-335.926l410.705-0.001zM485.293 250.896v-336.118h336.118c41.032 0 74.587 33.554 74.587 74.779v261.34l-410.705-0.001zM410.707 325.676v335.926h-336.118c-41.032 0-74.587-33.554-74.587-74.587v-261.34l410.705 0.001zM0.002 250.896v-261.34c0-41.032 33.554-74.779 74.587-74.779h336.118v336.118l-410.705 0.001z" />
<glyph unicode="&#xe929;" glyph-name="man-heart" horiz-adv-x="967" d="M387.5 36.804c-35.415 0-70.276-2.727-104.562 0.55-78.85 7.535-157.519 17.254-236.058 27.619-32.522 4.292-37.214 11.157-42.606 43.584-6.387 38.415-3.7 76.7 4.411 114.346 7.524 34.921 33.86 53.84 65.125 65.461 28.595 10.63 58.452 17.84 87.151 28.222 16.897 6.113 33.317 14.317 48.73 23.608 31.445 18.955 45.126 46.973 40.477 84.156-2.166 17.326-6.874 32.915-21.294 43.198-27.182 19.385-42.479 46.015-51.193 77.486-1.349 4.872-5.302 10.087-9.537 12.928-31.626 21.219-41.608 66.027-22.541 99.43 4.345 7.61 6.369 17.009 7.61 25.844 4.892 34.817 6.206 70.39 14.023 104.497 21.131 92.195 93.432 148.624 188.213 150.739 40.090 0.895 78.060-7.189 114.72-23.328 51.421-22.636 84.449-61.329 98.949-114.864 7.683-28.362 12.043-57.731 16.31-86.879 3.302-22.563 1.91-44.571 14.302-66.727 16.298-29.136-0.149-69.542-27.036-89.052-7.247-5.259-10.84-16.65-14.152-25.926-3.322-9.303-7.668-15.495-17.203-19.908-175.306-81.157-247.446-289.041-160.507-461.456 2.495-4.944 4.898-9.932 6.668-13.528v0zM398.782 203.047c0.047 156.217 128.217 284.726 283.948 284.697 156.299-0.028 283.67-127.67 283.798-284.401 0.129-157.345-126.393-284.2-283.48-284.227-156.812-0.026-284.312 127.323-284.265 283.931zM681.016 286.982c-1.397 1.479-2.728 3.023-4.179 4.446-26.61 26.080-58.077 35.591-93.57 23.485-61.83-21.091-78.319-98.762-48.201-145.367 12.022-18.603 27.833-33.87 44.1-48.657 30.47-27.699 63.626-51.93 97.507-75.216 7.496-5.152 8.825-5.346 16.365-0.098 38.707 26.934 74.933 56.875 108.15 90.358 13.049 13.153 25.934 26.819 33.672 43.834 15.149 33.306 13.004 66.241-5.611 97.705-27.040 45.705-85.732 57.943-128.537 26.869-6.899-5.009-12.787-11.412-19.471-17.47 0.054-0.026-0.124 0.005-0.225 0.111v0z" />
<glyph unicode="&#xe92a;" glyph-name="customer" horiz-adv-x="967" d="M886.155 609.239c-0.624 0-1.248-0.113-1.843-0.113-43.589 188.649-210.089 329.37-409.741 329.37-205.126 0-375.426-148.492-413.173-344.939-36.697-6.608-60.605-38.881-60.605-77.904v-156.149c0-43.759 31.054-79.265 74.388-79.265 24.446 0 46.028 11.542 60.378 29.267 34.726-91.621 104.878-165.402 194.633-204.701 1.129 2.236 2.447 4.371 3.942 6.381 1.418 1.815 2.978 3.29 4.339 3.29 1.39 0 2.694-0.51 3.8-1.276-20.674 15.399-95.374 94.523-111.567 204.984-7.090 48.637 29.296 96.31 71.693 104.222 68.063 12.677 135.815 27.14 203.85 39.59 43.277 7.884 72.828 31.621 90.95 71.155 4.197 9.217 10.351 27.906 13.159 54.876 0.651 4.046 4.127 7.030 8.224 7.062 2.836 0 5.218-1.418 6.778-3.488l1.872 1.163c26.828-38.938 80.031-125.208 87.688-216.158 8.792-103.967 3.885-175.206-75.72-248.034-1.339-1.222-2.101-2.952-2.099-4.764 0-2.24 1.191-4.141 2.949-5.332l1.928-0.908c0.567-0.113 1.049-0.284 1.617-0.284 0.539 0 0.993 0.17 1.503 0.284 1.106 0.596 2.184 1.305 3.29 1.872 81.3 44.833 142.388 119.048 170.754 207.451 11.807-17.465 29.992-29.602 50.65-33.805-33.691-153.228-170.385-249.14-339.721-263.717-10.705 26.147-36.209 43.18-64.462 43.050-38.314 0-69.396-30.317-69.396-67.751 0-37.378 31.054-67.723 69.396-67.723 30.884 0 56.776 19.852 65.738 47.106 196.022 15.967 353.135 132.468 385.948 313.488 29.802 12.382 49.242 41.463 49.289 73.735v157.992c0.085 44.156-35.96 79.974-80.428 79.974zM813.837 563.835c-51.133 138.509-183.629 237.428-339.438 237.428-155.184 0-287.171-98.096-338.785-235.698-2.552 3.148-5.559 5.842-8.536 8.565 29.211 167.663 173.505 295.14 347.492 295.14 173.136 0 317.005-126.229 347.18-292.729-3.045-3.968-5.695-8.223-7.912-12.705v0z" />
<glyph unicode="&#xe92b;" glyph-name="process" d="M708.928 649.003c81.408-55.104 133.888-141.76 141.76-252.032 26.24 0 55.168-7.872 81.408-18.368-7.872 141.76-81.408 270.4-196.928 341.312-7.872-15.744-7.872-44.608-26.24-70.912v0zM653.76 55.659c-44.608-18.432-89.216-34.176-141.76-34.176-52.48 0-99.776 7.872-141.76 34.176-18.432-26.24-34.176-44.672-55.168-63.040 63.040-34.112 126.080-55.168 196.928-55.168 70.912 0 141.76 18.432 196.928 55.168-15.744 20.992-34.112 36.736-55.168 63.040zM170.688 399.595c6.656 101.141 58.784 193.819 141.76 252.032-7.872 26.24-18.368 55.168-26.24 81.408-115.52-73.536-189.056-207.36-196.928-351.808 26.24 10.496 52.48 18.368 81.408 18.368v0zM181.184 352.299c-99.967-0.176-180.973-81.153-181.184-181.12 0.176-99.967 81.153-180.973 181.12-181.184 99.992 0.141 181.037 81.128 181.248 181.12-2.624 99.84-84.032 181.184-181.184 181.184v0zM512 937.899c-99.992-0.211-180.979-81.256-181.12-181.248 0.211-99.942 81.178-180.909 181.12-181.12 99.942 0.211 180.909 81.178 181.12 181.12-0.176 99.967-81.153 180.973-181.12 181.184v0.064zM842.88 352.299c-99.992-0.141-181.037-81.128-181.248-181.12 0.176-99.992 81.192-181.008 181.184-181.184 99.967 0.176 180.973 81.153 181.184 181.12-0.176 99.967-81.153 180.973-181.12 181.184v0zM181.12 352.299c-99.942-0.211-180.909-81.178-181.12-181.12 0.176-99.967 81.153-180.973 181.12-181.184 99.992 0.141 181.037 81.128 181.248 181.12-2.624 99.84-84.032 181.184-181.184 181.184h-0.064z" />
<glyph unicode="&#xe92c;" glyph-name="house" horiz-adv-x="1161" d="M1135.030-1.329h-82.959v524.715c0 31.11-24.888 55.997-55.997 55.997h-130.66c-35.258 0-62.219-26.962-62.219-62.219v-518.493h-55.997v883.512c0 31.11-24.888 55.997-55.997 55.997h-524.715c-31.11 0-55.997-24.888-55.997-55.997v-885.586h-82.959c-14.518 0-26.962-12.444-26.962-26.962s12.444-26.962 26.962-26.962h1105.427c14.518 0 26.962 12.444 26.962 26.962 2.074 16.592-10.37 29.036-24.888 29.036zM280.553 705.896h109.921v-109.921h-109.921v109.921zM390.474 201.921h-109.921v109.921h109.921v-109.921zM390.474 403.096h-109.921v109.921h109.921v-109.921zM581.279 201.921h-109.921v109.921h109.921v-109.921zM581.279 403.096h-109.921v109.921h109.921v-109.921zM581.279 595.975h-109.921v109.921h109.921v-109.921z" />
<glyph unicode="&#xe92d;" glyph-name="calendar-cloke" horiz-adv-x="1055" d="M463.741 67.876h-352.058c-25.24 0-45.743 20.829-45.743 46.466v422.419h857.212v221.466c0 62.588-50.074 113.46-111.682 113.46h-86.136v66.979h-65.939v-66.979h-395.637v66.979h-65.94v-66.979h-86.136c-61.609 0-111.683-50.872-111.683-113.46v-643.885c0-62.583 50.074-113.451 111.683-113.451h352.058c18.237 0 32.967 14.961 32.967 33.489s-14.73 33.495-32.967 33.495zM164.851 436.287h230.785v-66.989h-230.785v66.989zM164.851 235.34h230.785v-66.989h-230.785v66.989zM824.246 335.814h-65.94v-167.463h164.846v66.989h-98.906v100.474zM977.762 391.283c-49.873 50.656-116.013 78.494-186.484 78.494-70.476 0-136.722-27.837-186.489-78.494-49.867-50.652-77.273-117.851-77.273-189.438s27.406-138.888 77.273-189.443c49.867-50.652 116.013-78.494 186.489-78.494 70.471 0 136.717 27.842 186.484 78.494 49.863 50.661 77.268 117.857 77.268 189.443s-27.406 138.886-77.268 189.438zM791.278 0.893c-109.115 0-197.823 90.114-197.823 200.953s88.708 200.948 197.823 200.948c109.105 0 197.813-90.109 197.813-200.948s-88.708-200.953-197.813-200.953z" />
<glyph unicode="&#xe92e;" glyph-name="calendar-right" horiz-adv-x="1088" d="M702.584 832.151v67.269c0 19.22-19.218 38.441-38.436 38.441-19.222 0-38.441-19.22-38.441-38.441v-67.269h76.877zM239.881 832.151v67.269c0 19.22-19.219 38.441-38.439 38.441-19.219 0-38.439-19.22-38.439-38.441v-67.269h76.879zM894.782 342.045c-105.71 0-192.198-86.49-192.198-192.197s86.49-192.197 192.198-192.197c105.709 0 192.201 86.49 192.201 192.197s-86.491 192.197-192.201 192.197v0zM1019.711 197.897l-134.538-134.54c-9.611-9.612-9.611-9.612-19.218-9.612-9.612 0-9.612 0-19.222 9.612l-67.267 76.877c-9.614 9.613-9.614 28.831 0 38.441 9.609 9.61 28.827 9.61 38.436 0l57.661-57.659 115.317 115.322c9.612 9.605 28.831 9.605 38.441 0 0.001-9.613 0.001-28.831-9.61-38.441v0zM635.316 149.848c0 144.148 115.317 259.467 259.468 259.467v345.957c0 38.441-28.829 67.269-67.269 67.269h-124.93v-67.269c0-19.219-19.222-38.439-38.441-38.439-19.222 0-38.436 19.22-38.436 38.439v76.88h-384.399v-67.269c0-19.22-19.22-38.441-38.439-38.441-19.22 0-38.441 19.219-38.441 38.441v67.269h-96.099c-38.441 0-67.269-28.83-67.269-67.269v-759.183c0-38.439 28.83-67.271 67.269-67.271h701.522c-76.877 28.831-134.536 115.317-134.536 211.42v0zM68.329 572.684c0 19.218 19.219 38.439 38.439 38.439h691.915c19.218 0 38.441-19.221 38.441-38.439 0-19.22-19.222-38.441-38.441-38.441h-701.525c-19.219 9.611-28.83 19.22-28.83 38.441v0zM452.726 63.357h-297.907c-19.22 0-38.439 19.219-38.439 38.437 0 19.221 19.219 38.439 38.439 38.439h297.908c19.22 0 38.438-19.218 38.438-38.439-9.611-19.218-19.219-38.437-38.439-38.437v0zM452.726 274.774h-297.907c-19.22 0-38.439 19.221-38.439 38.441 0 19.218 19.219 38.439 38.439 38.439h297.908c19.22 0 38.438-19.221 38.438-38.439-9.611-28.828-19.219-38.441-38.439-38.441v0z" />
<glyph unicode="&#xe92f;" glyph-name="box-money" d="M124.8 849.067h774.4c28.8 0 48 19.2 48 44.8s-22.4 44.8-48 44.8h-774.4c-25.6 0-44.8-19.2-44.8-44.8s19.2-44.8 44.8-44.8zM976 756.267h-928c-28.8 0-48-19.2-48-44.8v-745.6c0-28.8 19.2-51.2 48-51.2h928c28.8 0 48 22.4 48 51.2v745.6c0 25.6-19.2 44.8-48 44.8zM672 289.067c28.8 0 48-19.2 48-44.8 0-22.4-19.2-44.8-48-44.8h-115.2v-108.8c0-28.8-19.2-51.2-44.8-51.2s-44.8 22.4-44.8 51.2v112h-115.2c-28.8 0-48 19.2-48 44.8s19.2 44.8 48 44.8h115.2v64h-115.2c-28.8 0-48 19.2-48 44.8 0 22.4 19.2 44.8 48 44.8h64l-22.4 44.8-28.8 54.4c-12.8 22.4-6.4 54.4 16 64 19.2 9.6 48 0 60.8-22.4l22.4-44.8v-3.2l22.4-44.8 22.4-48 22.4 48 22.4 44.8v3.2l22.4 44.8c12.8 22.4 41.6 35.2 60.8 22.4 19.2-9.6 28.8-41.6 16-64l-16-54.4-22.4-48h60.8c28.8 0 48-19.2 48-44.8s-19.2-44.8-48-44.8h-115.2v-64h112z" />
<glyph unicode="&#xe930;" glyph-name="note-pen" d="M131.902 937.968c-72.43 0-131.69-59.26-131.69-131.69v-753.926c0-72.43 59.26-131.69 131.69-131.69h727.587c72.43 0 131.69 59.26 131.69 131.69v753.927c0 72.429-59.261 131.689-131.69 131.689h-727.587zM238.361 778.778l516.539-0.039c11.989-0.001 23.122-6.211 29.422-16.412l0.872-1.412c5.665-9.173 5.591-20.777-0.19-29.877v0 0c-5.887-9.266-16.102-14.879-27.080-14.879h-520.988c-10.972 0-21.182 5.614-27.060 14.879v0 0c-5.803 9.147-6.048 20.759-0.635 30.142l0.674 1.168c5.865 10.167 16.71 16.431 28.447 16.43zM239.35 588.086h360.158c11.637 0 22.482-5.89 28.819-15.65l0.008-0.012c6.176-9.513 6.183-21.768 0.018-31.289v0 0c-6.319-9.759-17.153-15.65-28.779-15.651l-361.26-0.018c-11.461-0.001-22.108 5.921-28.154 15.658v0 0c-5.935 9.56-5.82 21.686 0.295 31.131l0.116 0.179c6.319 9.759 17.153 15.651 28.779 15.651zM210.090 368.193l0.082 0.132c6.054 9.736 16.707 15.655 28.171 15.654l213.416-0.017c11.228-0.001 21.614-5.957 27.285-15.647v0 0c5.653-9.659 5.633-21.621-0.052-31.26l-0.012-0.020c-5.714-9.689-16.124-15.636-27.373-15.638l-214.011-0.034c-11.345-0.002-21.862 5.937-27.72 15.652v0 0c-5.793 9.607-5.71 21.651 0.214 31.178zM618.878 15.078c-3.025-3.038-7.482-6.82-13.423-11.235-5.916-4.511-12.020-8.331-16.801-10.574-4.943-3.296-12.83-6.914-24.795-11.411l-33.141-12.397c-14.205-4.266-25.307-7.034-32.924-8.252-10.372-2.593-17.501-4.524-21.391-5.806l-1.89-0.635h-8.049c-13.99 0-21.094 6.361-24.497 11.56-4.538 6.739-5.861 16.205-4.16 27.185 0 3.808 0.757 10.454 6.536 27.739l18.071 62.188c3.241 13.222 5.32 18.731 7.589 21.987 2.486 4.888 5.186 9.669 8.319 14.45 2.863 4.214 7.076 9.859 13.533 17.799l263.801 272.175 122.461-127.147-259.237-267.626zM953.228 366.729c-1.89-6.389-5.267-12.802-11.235-20.351l-20.986-19.083c-2.965-4.442-6.911-8.143-11.534-10.817l-8.344-4.807-120.544 122.824 39.703 39.65c6.644 5.793 14.288 10.034 22.445 12.547 5.268 1.756 11.372 2.646 18.070 2.646h3.159l1.108-0.202c6.048-1.118 12.020-2.616 17.881-4.483l13.748-4.713c9.696-4.849 19.556-13.073 30.441-25.605 8.995-11.317 16.907-23.579 23.605-36.53 1.783-3.526 3.375-8.211 5.024-14.801 1.647-6.591 2.432-12.195 2.432-17.125 0-7.036-1.675-13.464-4.971-19.15z" />
<glyph unicode="&#xe931;" glyph-name="medal" horiz-adv-x="886" d="M804.941 583.751c0 195.23-162.364 354.037-361.955 354.037-199.673 0-362.146-158.806-362.146-354.075 0-195.192 162.472-353.955 362.146-353.955 199.591 0.001 361.955 158.807 361.955 353.993zM442.986 410.705c-97.637 0-177.072 77.621-177.072 173.046 0 95.469 79.435 173.128 177.072 173.128 97.581 0 176.99-77.659 176.99-173.128 0-95.425-79.409-173.046-176.99-173.046zM3.801 83.941c-3.773-6.637-3.691-14.771 0.177-21.375 3.856-6.541 10.972-10.707 18.74-10.884l137.228-3.040 75.232-112.218c4.127-6.124 11.098-9.809 18.551-9.809 0.272 0 0.537 0 0.809-0.094 7.78 0.31 14.815 4.557 18.619 11.162l137.345 241.755c-110.405 7.748-209.627 53.393-282.63 122.963l-124.071-218.459zM881.937 84.024l-123.259 217.028c-73.328-69.276-172.775-114.526-283.312-121.762l137.215-241.527c3.773-6.63 10.84-10.846 18.619-11.149h0.834c7.465 0 14.435 3.685 18.513 9.904l75.212 112.206 137.26 3.040c7.761 0.177 14.884 4.355 18.74 10.896 3.876 6.576 3.944 14.723 0.178 21.363v0z" />
<glyph unicode="&#xe932;" glyph-name="money" horiz-adv-x="853" d="M426.009 884.425l67.985 50.633c5.861 4.362 13.89 4.362 19.751 0l325.6-242.513c8.386-6.241 13.33-16.078 13.332-26.532v-628.406c-0.001-18.271-14.812-33.082-33.083-33.082h-66.595v601.542c0.002 10.033-4.549 19.524-12.372 25.805l-314.617 252.553zM380.985 301.955h99.247c11.862-0.065 22.851 6.227 28.801 16.489s5.95 22.925 0 33.187c-5.95 10.262-16.939 16.554-28.801 16.489h-69.060l56.539 56.539c8.356 8.359 11.618 20.541 8.557 31.958s-11.98 20.332-23.398 23.389c-11.417 3.057-23.598-0.209-31.955-8.568l-73.013-73.013-73.014 73.013c-12.918 12.922-33.865 12.926-46.787 0.008s-12.926-33.865-0.008-46.787l56.539-56.539h-69.061c-11.862 0.065-22.851-6.227-28.801-16.489s-5.95-22.925 0-33.187c5.95-10.262 16.939-16.554 28.801-16.489h99.249v-33.083h-99.249c-18.271 0-33.083-14.812-33.083-33.083s14.812-33.083 33.083-33.083h99.249v-66.165c-0.065-11.862 6.227-22.851 16.489-28.801s22.925-5.95 33.187 0c10.262 5.95 16.554 16.939 16.489 28.801v66.165h99.249c18.271 0 33.083 14.812 33.083 33.083s-14.812 33.083-33.083 33.083h-99.249v33.083h0.001zM13.269 615.033l324.476 252.752c5.98 4.664 14.366 4.664 20.346 0l324.442-252.752c8.047-6.276 12.747-15.914 12.737-26.119v-614.311c0-8.774-3.485-17.189-9.689-23.394s-14.619-9.69-23.394-9.69h-628.571c-18.271 0-33.083 14.812-33.083 33.083v614.329c0 10.193 4.699 19.817 12.737 26.086l-0.001 0.017zM347.901 619.664c27.407 0 49.624 22.218 49.624 49.624s-22.218 49.624-49.624 49.624c-27.407 0-49.624-22.218-49.624-49.624s22.218-49.624 49.624-49.624v0z" />
<glyph unicode="&#xe933;" glyph-name="product" horiz-adv-x="958" d="M729.316 331.603h-542.087c-23.21-1.033-42.81 16.016-43.841 37.715-1.032 22.216 17.021 40.815 39.715 41.332h545.698c23.21 1.033 42.81-16.016 43.841-37.715 1.032-22.216-17.021-40.815-39.715-41.332-1.032-0.517-2.063-0.517-3.61 0zM729.316 133.21h-542.087c-23.21-1.033-42.81 16.016-43.841 37.715-1.032 22.216 17.021 40.815 39.715 41.332h545.698c23.21 1.033 42.81-16.016 43.841-37.715 1.032-22.216-17.021-40.815-39.715-41.332-1.032-0.517-2.063-0.517-3.61 0zM166.598 728.391c0 43.915 37.136 79.564 83.557 79.564h104.188c45.905 0 83.557-35.649 83.557-79.564v-99.197c0-43.915-37.136-79.564-83.041-79.564h-104.704c-45.905 0-83.557 35.649-83.557 79.564v99.197zM896.429 13.864v825.606c0 43.915-58.283 99.197-104.188 99.197h-688.053c-45.905 0-104.188-55.282-104.188-99.197v-825.606c0-43.915 58.283-99.197 104.188-99.197h836.083c17.021 0 24.242 21.183 10.316 31.516-26.821 19.633-54.157 44.949-54.157 67.681z" />
<glyph unicode="&#xe934;" glyph-name="excuse-righta" horiz-adv-x="931" d="M867.681 876.521c-59.507-7.444-121.042-7.161-184.837 1.602-64.123 8.858-130.32 26.291-198.732 53.147l-18.657 7.397-18.752-7.397c-68.317-26.856-134.514-44.289-198.734-53.147-63.699-8.763-125.233-9.046-184.74-1.602l-63.228 7.869 0.753-71.097c3.44-301.871 52.205-456.644 130.557-591.207 82.358-141.062 194.682-254.613 321.377-287.405l12.767-3.296 12.768 3.296c126.599 32.792 238.923 146.343 321.33 287.405 78.401 134.468 127.166 289.337 130.604 591.207l0.753 71.097-63.228-7.869zM438.035 257.423l-219.088 226.343 53.805 51.638 164.246-169.334 268.462 286.84 54.75-50.601-322.175-344.886z" />
<glyph unicode="&#xe935;" glyph-name="note-car" horiz-adv-x="858" d="M540.566 762.188h-295.4v117.969h59.454c0 16.355 5.663 30.204 16.993 41.528 11.326 11.32 25.168 16.982 41.528 16.982h59.454c16.361 0 30.204-5.663 41.535-16.982 11.319-11.33 16.982-25.173 16.982-41.528h59.454v-117.969zM393.346 815.041c10.061 0 18.71 3.619 25.953 10.851 7.237 7.238 10.845 15.887 10.845 25.952 0 10.693-3.607 19.506-10.845 26.427-7.244 6.922-15.892 10.383-25.953 10.383-10.698 0-19.511-3.461-26.432-10.383s-10.382-15.734-10.382-26.427c0-10.065 3.459-18.715 10.382-25.952 6.922-7.238 15.729-10.851 26.432-10.851zM360.314 171.388c0-4.404-0.164-8.814-0.475-13.216-0.327-4.714-0.485-9.439-0.474-14.165 0-28.307 4.087-55.202 12.262-80.693 8.18-25.483 19.821-48.919 34.924-70.305h-275.584c-11.952 0-25.004 3.461-39.163 10.377-14.159 6.926-27.365 16.044-39.638 27.369-12.18 11.219-22.529 24.275-30.672 38.695-8.181 14.477-12.269 29.578-12.269 45.306v584.199c0 13.211 3.151 26.901 9.44 41.056 6.286 14.15 14.547 27.338 24.536 39.169 9.887 11.8 21.692 21.851 34.918 29.73 13.216 7.863 27.054 11.798 41.529 11.798h67.007v-117.971h412.427v117.96h58.522c14.464 0 28.781-3.145 42.94-9.434s26.902-14.785 38.216-25.484c11.33-10.693 20.612-23.594 27.844-38.69 7.238-15.102 10.851-31.152 10.851-48.14v-334.094c-21.964 14.445-45.77 25.87-70.779 33.97-25.168 8.18-51.906 12.273-80.218 12.273h-6.61c11.325 4.404 20.606 11.635 27.837 21.702s10.851 21.391 10.851 33.975c0 16.355-5.815 30.204-17.451 41.524-11.646 11.33-25.648 16.992-42.008 16.992h-412.421c-16.356 0-30.358-5.663-41.999-16.993-11.641-11.319-17.461-25.168-17.461-41.524s5.82-30.356 17.461-42.002c11.642-11.641 25.643-17.457 41.998-17.457h395.45c-37.757-6.289-72.042-19.663-102.879-40.105-30.831-20.454-56.304-46.407-76.436-77.864h-216.135c-16.355 0-30.356-5.668-41.998-16.988s-17.461-25.163-17.461-41.524c0-16.362 5.82-30.356 17.461-42.002 11.642-11.635 25.643-17.451 41.998-17.451l173.658 0.005zM546.637 131.084c0-10.077 8.169-18.247 18.247-18.247s18.247 8.169 18.247 18.247c0 10.077-8.169 18.247-18.247 18.247s-18.247-8.169-18.247-18.247zM576.117 186.947h118.493c8.703 0 19.168 6.878 19.849 15.582l-2.982 11.913-8.159 21.908c-0.73 4.077-2.386 4.95-5.045 8.383h-125.667c-2.632-3.336-4.425-4.109-5.216-8.426l-0.114-0.5-8.033-21.365-2.98-11.913c0.681-8.704 11.145-15.582 19.854-15.582v0zM687.596 131.084c-0.050-6.552 3.417-12.628 9.083-15.918s12.661-3.291 18.327 0c5.666 3.291 9.133 9.366 9.083 15.918 0 10.077-8.169 18.247-18.247 18.247s-18.247-8.169-18.247-18.247h0.001zM821.338 223.293c-11.003 25.163-25.947 47.191-44.826 66.060-18.873 18.883-40.891 33.822-66.060 44.837-25.173 11.009-51.911 16.513-80.229 16.513-28.939 0-55.993-5.51-81.156-16.513-25.174-11.015-47.191-25.953-66.070-44.838-18.873-18.867-33.818-40.896-44.831-66.060-11.014-25.167-16.514-51.905-16.514-80.217 0-28.956 5.505-56 16.514-81.178 11.015-25.168 25.959-47.186 44.831-66.060 18.879-18.878 40.896-33.664 66.070-44.362 25.157-10.698 52.217-16.039 81.156-16.039 28.312 0 55.055 5.34 80.229 16.039 25.169 10.698 47.187 25.483 66.060 44.363 18.879 18.873 33.823 40.891 44.826 66.060 11.014 25.172 16.525 52.221 16.525 81.176 0 28.313-5.511 55.051-16.525 80.219v0zM764.674 194.91c0.003-1.793-0.708-3.514-1.976-4.782s-2.989-1.979-4.782-1.976l-8.97-1.532c2.9-5.679 4.566-12.153 4.566-19.729l3.401-38.859c0-1.122-0.087-2.267-0.224-3.428 0.131-0.709 0.224-1.45 0.224-2.191v-46.745c0-6.654-5.395-12.050-12.050-12.050h-18.388c-3.196-0.001-6.262 1.268-8.522 3.528s-3.529 5.326-3.528 8.522v15.022h-158.131v-15.019c0.002-3.196-1.267-6.262-3.527-8.523s-5.326-3.529-8.522-3.528h-18.389c-6.655 0-12.050 5.395-12.050 12.050v46.745c0 0.757 0.093 1.482 0.217 2.191-0.138 1.137-0.213 2.282-0.224 3.428l3.396 38.859c0 7.548 1.668 14.023 4.562 19.697l-9.195 1.564c-3.727 0.006-6.744 3.031-6.741 6.758v5.848c0 3.744 3.024 6.762 6.741 6.762h24.259c1.231 0 2.371-0.376 3.362-0.958l10.949 33.032c3.004 15.62 14.29 27.757 32.886 27.757h102.682c16.203 0 29.381-9.031 32.874-27.762l10.933-32.929c0.954 0.511 2.012 0.86 3.161 0.86h24.246c1.792 0.001 3.511-0.712 4.777-1.981s1.975-2.989 1.97-4.781v-5.848l0.012-0.001z" />
<glyph unicode="&#xe936;" glyph-name="note" horiz-adv-x="848" d="M523.503 938.268h-408.802c-56.21 0-101.689-45.99-101.689-102.2l-0.511-817.603c0-56.21 45.479-102.2 101.689-102.2h613.713c56.21 0 102.2 45.99 102.2 102.2v613.202l-306.601 306.601zM574.603 120.665h-306.601c-28.222 0-51.1 22.878-51.1 51.1v0 0c0 28.222 22.878 51.1 51.1 51.1h306.601c28.222 0 51.1-22.878 51.1-51.1v0 0c0-28.222-22.878-51.1-51.1-51.1 0 0 0 0 0 0zM574.603 325.065h-306.601c-28.222 0-51.1 22.878-51.1 51.1v0 0c0 28.222 22.878 51.1 51.1 51.1h306.601c28.222 0 51.1-22.878 51.1-51.1v0 0c0-28.222-22.878-51.1-51.1-51.1 0 0 0 0 0 0zM472.403 580.566v281.051l281.051-281.051h-281.051z" />
<glyph unicode="&#xe937;" glyph-name="car-big" horiz-adv-x="1493" d="M1400.404 624.19c-1.049 1.258-1.888 2.307-3.146 3.356l-52.224 50.756c43.416 9.858 90.187 46.562 90.187 84.104 0 43.625-60.194 59.146-111.79 59.146-53.693 0-59.985-37.123-60.614-63.341l-135.071 131.086c-27.476 27.266-79.49 48.869-118.292 48.869h-526.020c-38.801 0-90.816-21.603-118.292-48.869l-134.861-130.876c-0.629 26.217-6.921 63.341-60.614 63.341-51.595 0-111.79-15.521-111.79-59.146 0-37.543 46.771-74.037 90.187-84.104l-52.224-50.756c-1.258-1.049-2.097-2.307-3.146-3.356-56-48.239-92.494-137.378-92.494-202.186v-192.538c0-46.771 18.247-89.138 47.82-120.808v-74.666c0-43.625 36.284-79.281 80.958-79.281h97.947c44.674 0 80.958 35.446 80.958 79.281v19.086h877.539v-19.086c0-43.625 36.284-79.281 80.958-79.281h97.947c44.674 0 80.958 35.655 80.958 79.281v74.666c29.573 31.67 47.82 74.037 47.82 120.808v192.538c-0.21 64.599-36.704 153.737-92.704 201.977zM414.641 830.991c19.086 15.94 52.224 27.895 68.794 27.895h526.020c16.569 0 49.708-12.165 68.794-27.895l177.018-172.613h-1017.643l177.018 172.613zM143.032 344.401c-45.513 0-82.427 38.382-82.427 85.782s36.914 85.782 82.427 85.782c45.513 0 194.216-87.88 194.216-135.28s-148.703-36.284-194.216-36.284zM994.983 239.323h-497.076c-51.805 0-93.752 64.179-93.752 143.46h684.581c0-79.071-41.947-143.46-93.752-143.46zM1349.858 344.401c-45.513 0-194.216-10.906-194.216 36.494s148.703 135.28 194.216 135.28c45.513 0 82.427-38.382 82.427-85.782 0-47.61-36.914-85.992-82.427-85.992z" />
<glyph unicode="&#xe938;" glyph-name="bulb" horiz-adv-x="747" d="M0 565.046c0 102.651 36.49 190.221 108.968 263.68 72.492 73.455 160.535 109.941 263.677 109.941 103.137 0 191.181-36.49 264.657-109.941 73.455-73.461 109.941-161.029 109.941-263.68 0-14.104-0.487-28.701-1.956-42.814-2.427-2.43-1.941-7.29-1.941-9.721l-5.839-35.035c-2.436 0-1.941-3.404-1.941-5.839-3.898-13.129-7.788-24.803-11.678-35.025v-1.949c0 0-0.487-0.481-1.949-1.941-5.349-14.11-10.219-26.764-15.572-36.971 0-1.462-0.487-1.953-1.946-1.953-6.33-13.129-13.619-25.301-21.407-36.971-7.776-11.678-16.055-23.357-25.301-35.025 0 0-0.487-0.49-0.961-0.985l-0.977-0.952c-7.78-9.251-17.023-18.007-27.238-27.259 0 0-0.972-0.481-2.921-1.941-4.866-3.4-5.352-6.325-10.713-11.674-2.427 0-5.823-1.455-5.823-3.898l-18.493-14.578-3.895-2.917-2.917-1.956c-11.667-9.243-19.953-19.466-25.301-31.136-5.349-11.674-10.207-19.94-15.559-25.297-5.352-5.341-15.078-7.78-29.195-7.78h-280.217c-14.104 0-23.835 2.443-29.182 7.78-5.357 5.361-10.713 13.623-16.549 25.297-5.839 11.67-14.104 21.893-24.316 31.136-1.467 0-2.43 0.49-3.898 1.956l-2.917 2.917-18.486 14.578-5.839 3.898-7.776 7.772c0 0-1.953 1.956-5.839 5.843l-27.254 27.259c0 0-0.478 0.47-0.965 0.952l-0.977 0.985c-18.004 23.348-33.567 46.222-46.696 71.996-1.467 0-1.956 0.487-1.956 1.953-5.349 10.207-10.212 22.861-15.559 36.971-1.462 0-1.953 0.487-1.953 1.941v1.949c-3.882 10.223-7.78 21.897-11.67 35.025 0 0-0.487 0.977-0.977 2.917l-0.977 2.917c-2.43 10.215-4.372 21.893-5.835 35.035 0 2.43-1.946 7.29-1.946 9.721-1.446 14.117-1.933 28.713-1.933 42.818h-0.003zM219.889 129.155h311.357c17.999 0 31.128-13.129 31.128-31.136 0-17.995-13.129-31.128-31.128-31.128h-311.357c-18.004 0-31.14 13.133-31.14 31.128 0 18.007 13.136 31.136 31.14 31.136zM233.505 4.614h282.166l-114.816-58.366c-18.002-7.8-38.43-7.8-56.433 0l-110.917 58.366zM406.698 751.856c37.465 0 72.974-15.082 106.059-45.731 33.082-30.642 49.617-68.593 49.617-113.839 0-15.564 13.136-31.136 31.136-31.136 18.004 0 31.136 15.572 31.136 31.136 0 67.625-21.889 121.141-66.17 161.511-44.265 40.382-94.859 60.335-151.778 60.335-17.999 0-31.136-13.133-31.136-31.136s13.136-31.14 31.136-31.14h0.001z" />
<glyph unicode="&#xe939;" glyph-name="wechat" d="M900.821 638.92c9.185-30.311 14.145-62.091 14.145-94.606 0-217.501-216.583-394.037-483.866-394.037-55.845 0-109.485 7.715-159.452 21.86l75.868 45.741c25.351-4.041 51.436-6.43 78.073-6.43 234.218 0 424.164 162.758 424.164 363.359s-189.946 363.359-424.164 363.359c-234.218 0-424.164-162.575-424.164-363.175 0-116.282 63.928-219.522 163.126-286.021v-181.128l95.524 57.682c77.338-88.36 200.601-145.491 339.478-145.491 26.82 0 52.722 2.388 78.073 6.43l182.965-110.22v180.945c99.198 66.499 163.126 169.739 163.126 286.021 0 99.749-47.027 190.13-122.895 255.711v0zM637.579 618.897c27.004 0 48.864-21.493 48.864-47.946s-21.86-47.946-48.864-47.946c-27.004 0-48.864 21.493-48.864 47.946s21.86 47.946 48.864 47.946v0zM441.938 618.897c27.004 0 48.864-21.493 48.864-47.946s-21.86-47.946-48.864-47.946c-27.004 0-48.864 21.493-48.864 47.946-0.184 26.453 21.677 47.946 48.864 47.946v0zM197.25 570.951c0 26.453 21.86 47.946 48.864 47.946s48.864-21.493 48.864-47.946c0-26.453-21.86-47.946-48.864-47.946s-48.864 21.493-48.864 47.946v0z" />
<glyph unicode="&#xe93a;" glyph-name="files" horiz-adv-x="869" d="M796.416-61.97h-723.984c-39.912 0-72.432 32.066-72.432 71.523v857.591c0 39.457 32.407 71.523 72.432 71.523h217.184v-71.523h-72.432v-71.523h72.432v-71.523h-72.432v-71.523h72.432v-71.523h-72.432v-71.523h72.432v-71.523h-72.432v-71.523h72.432v-0.114l72.319 0.114v71.523h72.432v71.523h-72.432v71.523h72.432v71.523h-72.432v71.523h72.432v71.523h-72.432v143.046h144.751v-357.387h361.935v-571.841c0.227-39.343-32.18-71.409-72.205-71.409zM217.184 80.962h217.297v214.455h-217.184v-214.455h-0.114zM289.616 223.894h72.432v-71.523h-72.432v71.523zM579.232 938.667l289.616-285.864h-289.616v285.864z" />
<glyph unicode="&#xe93b;" glyph-name="gold" horiz-adv-x="1054" d="M532.79 938.643c-282.763 0-512-229.237-512-512s229.237-512 512-512c282.762 0 512 229.238 512 512 0 282.763-229.239 512-512 512v0zM886.341 424.12h-62.395c-5.723 0-10.394 4.723-10.394 10.595v10.62h-0.526c-5.521 153.275-128.687 275.89-280.238 275.89-155.074 0-280.763-128.263-280.763-286.51 0-158.222 125.689-286.485 280.763-286.485 66.917 0 127.987 24.315 176.189 64.27l-73.839 70.090h199.203v-198.027l-66.293 67.641c-63.444-55.147-145.354-88.856-235.26-88.856-201.002 0-363.972 166.268-363.972 371.368 0 205.125 162.97 371.394 363.972 371.394 192.131 0 348.679-152.1 362.198-344.607 1.025-1.624 1.749-26.787 1.749-26.787 0.001-5.873-4.647-10.596-10.394-10.596v0zM678.494 394.010v-63.144h-108.523v-98.326h-71.814v98.326h-111.021v63.144h111.021v58.422h-111.021v62.945h87.783l-87.857 105.398h76.313l68.716-91.056 71.265 91.056h73.114l-87.133-105.398h89.157v-62.945h-108.523v-58.422h108.523z" />
<glyph unicode="&#xe93c;" glyph-name="card" horiz-adv-x="1451" d="M0 626.696v-592.746c0-51.787 41.804-93.591 93.591-93.591h1263.484c51.787 0 93.591 41.804 93.591 93.591v592.746h-1450.667zM249.577 252.33h499.154v-62.394h-499.154v62.394zM249.577 439.513h748.731v-62.394h-748.731v62.394zM0 845.076v-93.591h1450.667v93.591c0 51.787-41.804 93.591-93.591 93.591h-1263.484c-51.787 0-93.591-41.804-93.591-93.591z" />
<glyph unicode="&#xe93d;" glyph-name="more" d="M49.389 929.878c-26.509 0-48.198-21.693-48.198-48.2v-354.171c0-26.508 21.689-48.207 48.198-48.207h354.171c26.508 0 48.198 21.699 48.198 48.207v354.169c0 26.509-21.689 48.2-48.198 48.2l-354.171 0.002zM49.389 929.878c-26.509 0-48.198-21.693-48.198-48.2v-354.171c0-26.508 21.689-48.207 48.198-48.207h354.171c26.508 0 48.198 21.699 48.198 48.207v354.169c0 26.509-21.689 48.2-48.198 48.2l-354.171 0.002zM532.292 719.956c-18.745-18.747-18.745-49.42 0-68.159l204.485-204.492c18.747-18.747 49.42-18.747 68.168 0l204.485 204.485c18.739 18.747 18.739 49.42 0 68.168l-204.485 204.482c-18.747 18.739-49.43 18.739-68.168 0l-204.485-204.483zM532.292 719.956c-18.745-18.747-18.745-49.42 0-68.159l204.485-204.492c18.747-18.747 49.42-18.747 68.168 0l204.485 204.485c18.739 18.747 18.739 49.42 0 68.168l-204.485 204.482c-18.747 18.739-49.43 18.739-68.168 0l-204.485-204.483zM600.706 382.232c-26.508 0-48.198-21.699-48.198-48.207v-354.162c0-26.516 21.689-48.207 48.198-48.207h354.171c26.508 0 48.198 21.689 48.198 48.207v354.171c0 26.499-21.689 48.198-48.198 48.198h-354.171zM600.706 382.232c-26.508 0-48.198-21.699-48.198-48.207v-354.162c0-26.516 21.689-48.207 48.198-48.207h354.171c26.508 0 48.198 21.689 48.198 48.207v354.171c0 26.499-21.689 48.198-48.198 48.198h-354.171zM49.389 382.232c-26.509 0-48.198-21.699-48.198-48.207v-354.162c0-26.516 21.689-48.207 48.198-48.207h354.171c26.508 0 48.198 21.689 48.198 48.207v354.171c0 26.499-21.689 48.198-48.198 48.198h-354.171zM49.389 382.232c-26.509 0-48.198-21.699-48.198-48.207v-354.162c0-26.516 21.689-48.207 48.198-48.207h354.171c26.508 0 48.198 21.689 48.198 48.207v354.171c0 26.499-21.689 48.198-48.198 48.198h-354.171z" />
<glyph unicode="&#xe93e;" glyph-name="man-pie" d="M421.977 11.036c-36.427 0-72.283-2.805-107.55 0.566-81.103 7.75-162.019 17.747-242.802 28.408-33.452 4.414-38.277 11.476-43.823 44.829-6.57 39.513-3.806 78.891 4.537 117.613 7.739 35.918 34.827 55.378 66.986 67.331 29.412 10.933 60.122 18.35 89.641 29.029 17.38 6.287 34.269 14.726 50.122 24.283 32.343 19.496 46.415 48.315 41.634 86.56-2.227 17.821-7.071 33.855-21.902 44.432-27.959 19.939-43.693 47.33-52.656 79.7-1.387 5.012-5.453 10.375-9.809 13.297-32.529 21.825-42.797 67.913-23.185 102.271 4.469 7.828 6.551 17.495 7.828 26.582 5.032 35.812 6.384 72.401 14.424 107.483 21.735 94.83 96.102 152.87 193.59 155.046 41.235 0.92 80.291-7.395 117.997-23.994 52.89-23.283 86.862-63.081 101.776-118.145 7.902-29.173 12.387-59.381 16.776-89.361 3.397-23.208 1.964-45.844 14.711-68.633 16.764-29.969-0.153-71.529-27.809-91.596-7.454-5.409-11.15-17.126-14.557-26.667-3.417-9.569-7.887-15.937-17.694-20.477-180.314-83.476-254.516-297.299-165.093-474.64 2.567-5.085 5.038-10.216 6.858-13.915v0zM710.472 468.995v-277.333h277.333c0-153.167-124.166-277.333-277.333-277.333s-277.333 124.166-277.333 277.333c0 153.167 124.166 277.333 277.333 277.333zM741.286 499.81c150.115-8.43 269.646-128.825 276.995-278.997h-276.995v278.997z" />
<glyph unicode="&#xe93f;" glyph-name="chat" horiz-adv-x="1056" d="M1024.855 462.476c0 262.647-229.212 475.443-512 475.443s-512-212.796-512-475.443c0-148.242 73.315-280.472 187.921-367.585l-4.129-136.56c-0.302-9.869 8.359-17.725 18.127-16.415l333.344 45.117-1.611 0.504c272.718 10.675 490.348 219.141 490.348 474.939zM584.962 308.493h-312.598c-17.725 0-32.025 14.401-32.025 32.025 0 17.725 14.401 32.025 32.025 32.025h312.699c17.725 0 32.025-14.401 32.025-32.025 0-17.725-14.401-32.025-32.126-32.025zM785.371 487.25h-513.007c-17.725 0-32.025 14.401-32.025 32.025s14.401 32.025 32.025 32.025h513.108c17.725 0 32.025-14.401 32.025-32.025s-14.401-32.025-32.126-32.025z" />
<glyph unicode="&#xe940;" glyph-name="box-right" horiz-adv-x="1126" d="M944.030-76.25h-780.071c-41.402-0.017-81.115 16.418-110.397 45.688s-45.733 68.975-45.733 110.378v468.133h1092.267v-468.133c0-86.193-69.873-156.066-156.066-156.066v0zM758.473 369.073c-7.315 7.325-17.243 11.441-27.596 11.441s-20.28-4.116-27.596-11.441l-137.947-137.818-82.691 82.627c-15.241 15.258-39.965 15.273-55.224 0.032s-15.273-39.965-0.032-55.224l110.512-110.319c15.227-15.212 39.9-15.212 55.127 0l165.511 165.511c7.345 7.318 11.474 17.26 11.474 27.628s-4.129 20.31-11.474 27.628l-0.064-0.064zM7.829 703.949c0 86.193 69.873 156.066 156.066 156.066h78.001v39c0 21.539 17.461 39 39 39s39-17.461 39-39v-39h468.133v39c0 21.539 17.461 39 39 39s39-17.461 39-39v-39h78.001c86.193 0 156.066-69.873 156.066-156.066v-78.001h-1092.267v78.001z" />
<glyph unicode="&#xe941;" glyph-name="book-find" horiz-adv-x="878" d="M382.468 711.238c-42.273-43.519-42.273-114.282 0-157.745 20.076-20.843 47.769-32.619 76.709-32.619s56.633 11.776 76.709 32.619c42.273 43.463 42.273 114.282 0 157.745-20.066 20.84-47.751 32.615-76.681 32.615s-56.614-11.775-76.681-32.615zM805.877 938.656h-179.104c-0.334 0-0.679-0.056-1.046-0.056l-0.367 0.056-365.617-1.29c-2.844 0.873-5.803 1.311-8.777 1.302h-179.104c-39.347 0-71.386-32.928-71.386-73.421v-849.586c0-40.493 32.027-73.421 71.386-73.421h733.981c39.369 0 71.419 32.917 71.419 73.421v849.586c0 40.493-32.027 73.421-71.386 73.421zM227.549 442.783l99.62 102.545c-38.858 62.386-31.883 146.543 21.092 201.052 29.016 30.128 69.043 47.151 110.872 47.151s81.856-17.023 110.872-47.151c61.185-62.864 61.185-165.198 0-228.052-51.418-53.405-133.62-62.522-195.49-21.682l-99.62-102.49c-5.504-5.727-13.104-8.965-21.047-8.965s-15.544 3.237-21.047 8.965l-5.262 5.406c-11.641 12.067-11.641 31.185 0 43.252zM465.802 73.996h-286.811c-21.136 0-38.19 17.621-38.19 39.303s17.109 39.303 38.19 39.303h286.811c21.136 0 38.179-17.566 38.179-39.303s-17.098-39.303-38.179-39.303zM698.693 221.573h-519.702c-21.136 0-38.19 17.566-38.19 39.247s17.109 39.303 38.19 39.303h519.702c21.136 0 38.179-17.566 38.179-39.303s-17.087-39.247-38.179-39.247z" />
<glyph unicode="&#xe942;" glyph-name="wheel" d="M604.341 521.308c-47.695 48.095-137.087 48.095-184.782 0-23.598-23.898-38.296-56.894-38.296-93.291s14.599-69.393 38.296-93.291c9.099-9.199 19.498-16.998 30.997-23.198 38.096-20.498 84.692-20.498 122.788 0 11.499 6.199 21.898 13.999 30.997 23.198 23.598 23.898 38.296 56.894 38.296 93.291s-14.699 69.393-38.296 93.291zM873.915 797.181c-93.391 94.291-227.678 141.486-361.965 141.486s-268.574-47.195-361.965-141.486c-92.691-93.491-149.985-222.778-149.985-365.464 0-142.786 57.294-271.973 149.985-365.564 48.895-49.295 107.49-88.691 172.783-114.989 60.394-24.298 124.788-36.496 189.182-36.496s128.787 12.199 189.182 36.496c65.294 26.197 123.988 65.594 172.783 114.989 92.691 93.591 149.985 222.778 149.985 365.564 0 142.686-57.294 271.973-149.985 365.464zM222.878 138.745c-57.394 57.894-97.79 132.987-112.989 216.879-5.499 22.798 4.2 29.697 21.198 29.197 34.297 0.7 68.593 0.6 101.19-5.599 116.389-22.198 158.085-78.892 178.683-209.48 7.499-47.395 12.199-102.89 16.198-142.986-78.892 16.798-149.385 56.594-204.28 111.989zM511.95 261.933c-27.797 0-55.595 7.099-80.492 21.198-13.199 7.499-25.298 16.798-35.896 27.497-29.797 30.097-48.195 71.693-48.195 117.589 0 42.096 15.498 80.592 41.096 109.889-29.797-1.5-174.783-3.6-242.076-6.199-20.498-1.1-27.997 8.599-22.398 29.297 20.298 61.494 54.495 116.689 98.89 161.484 74.593 75.293 181.882 112.989 289.072 112.989 107.29 0 214.479-37.696 289.072-112.989 44.396-44.796 78.692-99.89 98.89-161.484 5.599-20.698-1.9-30.397-22.398-29.297-67.293 2.6-212.279 4.7-242.076 6.199 25.597-29.297 41.096-67.793 41.096-109.889 0-45.896-18.398-87.491-48.195-117.589-10.599-10.699-22.698-19.998-35.896-27.497-24.898-14.199-52.695-21.198-80.492-21.198zM801.022 138.745c-54.895-55.495-125.388-95.191-204.28-111.989 4 40.096 8.699 95.591 16.198 142.986 20.598 130.587 62.194 187.282 178.583 209.48 32.697 6.199 66.993 6.399 101.19 5.599 16.998 0.5 26.697-6.399 21.198-29.197-15.099-83.892-55.495-158.884-112.889-216.879z" />
<glyph unicode="&#xe943;" glyph-name="hand" horiz-adv-x="1289" d="M329.567 715.431l225.586 178.589c65.796 46.997 140.991 56.396 216.186 28.198l357.178-140.991c28.198-9.399 46.997-9.399 75.195-9.399h56.396c18.799 0 28.198-9.399 28.198-28.198v-441.772c0-18.799-18.799-28.198-28.198-28.198h-75.195c-9.399 0-18.799 0-28.198-9.399l-18.799-18.799h-18.799l-413.574 507.568c-9.399 18.799-28.198 18.799-37.598 9.399l-187.988-103.394c-46.997-28.198-93.994-28.198-131.592-9.399-28.198 9.399-37.598 28.198-28.198 56.396l9.399 9.399zM38.185 264.259h65.796l46.997 56.396c46.997 56.396 122.192 65.796 169.189 18.799 18.799-18.799 37.598-37.598 37.598-56.396 37.598-9.399 75.195-46.997 84.595-84.595 28.198-9.399 56.396-28.198 65.796-56.396 28.198 0 46.997-18.799 65.796-37.598 37.598-37.598 46.997-103.394 18.799-150.391l-9.399-9.399c28.198-18.799 75.195-18.799 93.994 18.799 9.399 18.799 18.799 37.598 9.399 56.396l9.399-9.399c28.198-28.198 65.796-28.198 93.994-9.399 18.799 18.799 37.598 46.997 28.198 65.796l9.399-9.399c28.198-28.198 56.396-28.198 93.994-9.399 18.799 18.799 37.598 46.997 28.198 65.796l9.399-9.399c18.799-18.799 56.396-28.198 84.595-9.399 37.598 18.799 46.997 65.796 28.198 93.994l-9.399 9.399-46.997 56.396-338.379 432.373c0 0-9.399 9.399-18.799 0l-169.189-93.994c-46.997-28.198-112.793-28.198-169.189-9.399-28.198 9.399-56.396 37.598-65.796 65.796-9.399 37.598 0 65.796 9.399 93.994 0 9.399 0 18.799-9.399 18.799h-225.586c-18.799 0-28.198-9.399-28.198-28.198v-441.772c0-9.399 18.799-28.198 37.598-28.198zM273.17 301.857c-28.198 9.399-56.396 9.399-75.195-18.799l-46.997-56.396c-18.799-28.198-18.799-65.796 9.399-84.595l9.399-9.399c18.799-18.799 46.997-18.799 65.796-9.399 0-18.799 0-46.997 18.799-56.396h9.399c18.799-9.399 37.598-18.799 65.796-9.399 0-18.799 9.399-37.598 18.799-56.396 18.799-18.799 46.997-18.799 65.796-9.399 0-18.799 9.399-28.198 18.799-37.598 28.198-18.799 65.796-18.799 84.595 9.399 0 0 0 9.399 9.399 9.399l9.399 18.799c18.799 28.198 9.399 56.396-9.399 75.195s-46.997 18.799-65.796 9.399c0 28.198-28.198 56.396-56.396 65.796h-28.198c-9.399 0-9.399 9.399-9.399 9.399 9.399 28.198 0 65.796-28.198 75.195-18.799 9.399-37.598 9.399-46.997 0-9.399 0-9.399 9.399-9.399 9.399 28.198 9.399 18.799 46.997-9.399 65.796v0z" />
<glyph unicode="&#xe944;" glyph-name="book" horiz-adv-x="819" d="M123.855 918.441c-30.582-0.168-58.709-7.704-81.384-21.896-11.34-7.199-21.484-16.225-29.093-27.58-7.608-11.286-12.608-25.308-12.535-40.134v-756.009c-0.073-14.842 4.928-28.867 12.535-40.134 11.561-17.008 28.198-28.866 47.142-36.999 18.65-7.944 39.837-12.271 62.367-12.459l581.262-45.206v109.808l114.956 5.336v884.65l-695.251-19.376zM467.753 347.041l-240.206 18.669 5.446 70.567 240.202-18.684-5.442-70.551zM574.65 515.705l-416.179 33.347 5.595 70.568 416.179-33.344-5.595-70.571zM756.219 113.141l-52.070-2.425v646.351l-579.771 45c-19.097 1.772-37.82 5.39-48.338 12.176-5.298 3.319-8.727 6.863-10.442 9.419-1.719 2.651-1.867 3.934-1.94 5.168 0.073 1.249 0.221 2.536 1.94 5.183 2.46 3.861 9.174 9.793 19.616 14.192 10.37 4.457 24.097 7.421 39.164 7.402h0.297l631.544 17.626v-760.092z" />
<glyph unicode="&#xe945;" glyph-name="man-circle" d="M449.607 852.846c-72.026-111.802-35.498-193.706-35.498-193.706s-27.965 45.939-41.877 0c-14.030-46.033 9.258-64.442 58.235-121.895 48.856-57.523 123.401-144.923 181.587-165.63 58.307-20.707 158.347 85.078 216.581 154.044 58.234 69.038 55.836 108.153 39.527 133.481-16.24 25.302-25.545 0-25.545 0s20.962 118.388-35.017 189.678c-93.803 119.762-285.824 115.782-357.993 4.028v0zM488.029 352.662c0 0 33.099-95.975 63.895-161.389 30.652-65.483 28.326-42.099 28.326-42.099s23.623 86.499 23.623 105.215c0 18.716-33.122 35.136-21.297 65.484 11.849 30.421 49.671 42.101 78.068 23.337 28.351-18.598 26.072-32.649 11.778-63.141-14.152-30.349-16.502-46.769-16.502-46.769l30.676-88.796 87.52 201.050c26.695 61.339 258.385-179.111 244.402-308.587-14.605-134.261-783.526-107.016-783.526-37.504-0.001 177.075 85.312 293.924 253.035 353.199zM24.384 511.494c0 2.227 185.856 168.971 194.298 177.12 26.888-26.179 189.767-177.12 189.767-177.12v-139.427c0-35.965-92.437-26.867-163.958-146.772-77.182-129.309-39.288-253.193-72.266-255.73-31.683-2.559-68.308 0.736-109.49 0.736-21.106 0-38.351 13.006-38.351 28.808 0 169.894 0 343.839 0 512.385v0zM214.030 576.789c-57.491 0-104.141-46.152-104.141-102.918 0-56.837 46.651-102.942 104.141-102.942 57.539 0 104.26 46.105 104.26 102.942 0 56.767-46.721 102.918-104.26 102.918z" />
<glyph unicode="&#xe946;" glyph-name="man-right" horiz-adv-x="964" d="M559.26 380.844c3.055 10.567 7.596 18.451 13.647 23.696 8.148 7.112 18.757 15.701 31.708 25.869 5.474 4.736 10.371 11.347 14.827 19.758 4.447 8.479 8.377 17.11 11.746 25.92 3.615 10.744 7.036 21.553 10.261 32.421 6.79 2.037 13.283 5.754 19.385 11.178 5.474 4.744 10.439 11.347 14.887 19.767 4.388 8.47 7.299 19.775 8.665 34 1.375 10.838 1.197 19.936-0.509 27.388-1.714 7.452-3.938 13.554-6.671 18.248-2.574 5.278-6.439 9.821-11.237 13.206 0 27.728-1.706 55.116-5.135 82.173-3.361 23.662-9.175 48.513-17.331 74.603-8.216 26.030-21.159 49.862-38.888 71.496-7.528 9.489-17.908 18.918-31.199 28.407-13.342 9.48-28.517 17.9-45.559 25.351-17.619 7.647-35.93 13.587-54.683 17.738-19.309 4.389-39.049 6.604-58.85 6.603-15.684 0-31.878-1.188-48.589-3.556-17.204-2.488-34.039-7.077-50.126-13.664-16.703-6.781-33.075-16.1-49.099-27.898-16.024-11.865-30.512-27.219-43.455-46.204-14.36-19.589-25.088-41.901-32.218-66.913-7.18-25.020-12.137-48.343-14.827-70.028-3.409-25.547-4.78-51.325-4.099-77.090-6.162-6.781-10.609-13.894-13.291-21.294-2.733-6.773-4.617-14.904-5.644-24.333-1.018-9.489 0.509-19.996 4.617-31.454 3.369-11.526 7.469-20.335 12.264-26.378 4.787-6.102 9.175-10.838 13.291-14.233 4.787-3.395 9.574-5.754 14.309-7.112 3.42-11.466 6.841-22.304 10.27-32.421 3.361-8.81 7.129-17.441 11.229-25.92 4.099-8.411 8.835-15.022 14.309-19.758 10.943-8.869 21.521-18.178 31.708-27.906 9.582-9.149 14.997-21.456 16.363-37.047 0.679-10.779 1.027-20.607 1.027-29.366 0.006-8.723-1.719-17.36-5.075-25.411-3.42-8.071-8.895-16.211-16.423-24.341-7.469-8.080-18.358-16.55-32.727-25.36-18.417-11.458-39.525-20.268-63.417-26.37-23.311-5.912-46.351-12.847-69.052-20.785-22.126-7.791-41.57-18.298-58.282-31.454-16.711-13.215-26.803-32.302-30.215-57.323-6.79-43.93-8.334-79.797-4.575-107.533 3.768-27.719 9.013-44.32 15.854-49.693 4.108-3.378 13.97-6.773 29.654-10.159 15.684-3.395 34.781-6.781 57.306-10.168 22.474-3.386 47.562-6.603 75.163-9.591 27.66-3.055 55.422-5.771 83.37-8.148 27.999-2.368 55.082-4.227 81.316-5.585 26.293-1.358 49.268-2.037 69.061-2.037 19.784 0 43.166 0.679 70.079 2.037s55.082 3.225 84.397 5.593c28.178 2.283 56.185 5.033 84.108 8.25-101.202 38.829-173.029 136.916-173.029 251.782 0 74.654 30.342 142.229 79.381 191.048v0zM891.663 180.426c-0.662 8.249-4.532 15.909-10.779 21.337l-103.68 101.236c-12.426 12.363-32.505 12.363-44.931 0-12.357-12.425-12.357-32.498 0-44.923l49.667-48.496h-111.369c-17.525-0.056-31.716-14.251-31.768-31.776 0.051-17.525 14.243-31.72 31.768-31.776h115.375l-50.287-52.825c-12.363-12.426-12.363-32.505 0-44.931 12.425-12.357 32.498-12.357 44.923 0l100.998 106.090c0.314 0.289 0.62 0.594 0.925 0.891 6.618 6.628 9.97 15.842 9.158 25.173v0zM753.465-32.374c-115.817 0-209.685 93.886-209.685 209.685s93.877 209.685 209.685 209.685c115.808 0 209.685-93.877 209.685-209.685s-93.877-209.685-209.685-209.685v0z" />
<glyph unicode="&#xe947;" glyph-name="back" horiz-adv-x="1418" d="M561.974 801.336c23.983 23.69 24.221 62.337 0.531 86.32s-62.337 24.221-86.32 0.531l-425.174-419.973c-24.088-23.793-24.207-62.645-0.266-86.586l425.174-425.174c23.837-23.837 62.484-23.837 86.321 0s23.837 62.484 0 86.321l-381.747 381.747 381.481 376.814zM93.905 361.15h1230.036c33.711 0 61.038 27.328 61.038 61.038s-27.328 61.038-61.038 61.038h-1230.036c-33.711 0-61.038-27.328-61.038-61.038s27.328-61.038 61.038-61.038z" />
</font>
</defs>
</svg>
